<svg xmlns="http://www.w3.org/2000/svg" width="1920" height="360" viewBox="0 0 1920 360" fill="none"><g clip-path="url(#clip0_24_104)"><mask id="mask0_24_104" style="mask-type:alpha" maskUnits="userSpaceOnUse" x="0" y="-42" width="1920" height="405"><rect y="-42" width="1920" height="405" fill="url(#paint0_linear_24_104)"></rect></mask><g mask="url(#mask0_24_104)"><mask id="path-2-inside-1_24_104" fill="white"><path d="M-985.377 -3L2211.28 157.948L2204.66 289.493L-992 128.545L-985.377 -3Z"></path></mask><path d="M-985.377 -3L2211.28 157.948L2204.66 289.493L-992 128.545L-985.377 -3Z" fill="#100F0F"></path><path fill-rule="evenodd" clip-rule="evenodd" d="M-114.225 146.385L-114.253 146.375C-119.923 144.484 -124.717 142.146 -128.507 139.28L-131.174 137.263L-120.046 115.312L-116.26 118.005C-113.43 120.019 -110.095 121.783 -106.223 123.275C-102.359 124.672 -98.5362 125.454 -94.7451 125.644C-92.1344 125.776 -90.2636 125.646 -89.0074 125.372C-87.6067 124.992 -87.1103 124.61 -87.0194 124.521L-87.0096 124.511C-86.8868 124.391 -86.8485 124.316 -86.837 124.291C-86.8266 124.268 -86.8075 124.221 -86.8021 124.114C-86.7966 124.005 -86.8058 123.945 -86.8107 123.922C-86.8151 123.9 -86.8195 123.89 -86.8241 123.881C-86.8291 123.871 -86.8989 123.735 -87.208 123.515C-88.2354 122.787 -89.75 122.05 -91.8835 121.385C-94.2072 120.661 -96.817 119.918 -99.7167 119.157L-99.7259 119.155L-99.7351 119.153C-102.752 118.345 -105.787 117.357 -108.838 116.191L-108.851 116.186L-108.864 116.181C-112 114.957 -114.889 113.43 -117.516 111.588L-117.549 111.565L-117.582 111.541C-120.405 109.475 -122.667 106.882 -124.345 103.798L-124.357 103.777L-124.368 103.755C-126.185 100.316 -126.846 96.2957 -126.625 91.9107C-126.367 86.7828 -124.731 82.131 -121.715 78.0653L-121.699 78.0437L-121.683 78.0223C-118.546 73.9116 -114.143 70.8622 -108.725 68.7488C-103.159 66.5774 -96.547 65.7821 -89.0427 66.16C-83.9646 66.4156 -79.0154 67.2541 -74.2023 68.6777C-69.2936 70.0424 -64.8818 71.9578 -61.0097 74.4594L-58.0603 76.3648L-68.5735 98.4864L-72.3602 96.1885C-75.4911 94.2885 -78.5633 92.8705 -81.5777 91.9062L-81.6138 91.8946L-81.6497 91.8824C-84.6796 90.8493 -87.5777 90.2801 -90.3542 90.1404C-92.9549 90.0094 -94.7433 90.2127 -95.8916 90.562L-95.9602 90.5829L-96.0295 90.6013C-97.3626 90.955 -97.8015 91.3534 -97.8928 91.4582C-98.1078 91.7053 -98.2065 91.9373 -98.2248 92.2993C-98.2294 92.3915 -98.2216 92.44 -98.2183 92.4562C-98.2154 92.4707 -98.2129 92.4767 -98.2093 92.4839C-98.2058 92.4908 -98.1514 92.5995 -97.9233 92.7814C-96.8731 93.4565 -95.366 94.1477 -93.2981 94.7962C-90.865 95.4667 -88.2288 96.1817 -85.389 96.9415C-82.3137 97.7488 -79.2848 98.7336 -76.3027 99.895C-73.0689 101.058 -70.1141 102.601 -67.4617 104.537C-64.5904 106.558 -62.3435 109.186 -60.7384 112.356C-58.921 115.728 -58.2629 119.678 -58.4794 123.978C-58.7331 129.016 -60.4289 133.626 -63.4931 137.721C-66.566 141.86 -70.9491 144.918 -76.3648 147.032C-81.8772 149.215 -88.4979 150.005 -96.0566 149.625C-102.34 149.308 -108.391 148.234 -114.197 146.394L-114.225 146.385ZM-77.828 143.31C-72.942 141.403 -69.2329 138.744 -66.7007 135.331C-64.0958 131.852 -62.6871 128.001 -62.4744 123.777C-62.2826 119.968 -62.8857 116.779 -64.2836 114.21C-65.6087 111.574 -67.4448 109.434 -69.7917 107.789C-72.1351 106.074 -74.7729 104.692 -77.7051 103.641C-80.5646 102.526 -83.4675 101.581 -86.4137 100.808C-89.2906 100.038 -91.9616 99.3138 -94.4265 98.6343C-96.8187 97.8891 -98.7539 97.028 -100.232 96.0511C-101.637 95.0085 -102.3 93.6908 -102.22 92.0982C-102.157 90.8517 -101.72 89.763 -100.91 88.8319C-100.099 87.9008 -98.8145 87.2019 -97.0555 86.7351C-95.293 86.199 -92.9922 86.0025 -90.1531 86.1454C-86.9678 86.3058 -83.703 86.9561 -80.3588 88.0964C-78.1723 88.7959 -75.9815 89.7029 -73.7864 90.8174C-72.6205 91.4094 -71.4534 92.0598 -70.285 92.7689L-63.1803 77.8192C-66.6765 75.5605 -70.7181 73.7951 -75.3053 72.5228C-79.8197 71.1848 -84.4659 70.3955 -89.2439 70.1549C-96.3762 69.7958 -102.385 70.5693 -107.271 72.4753C-112.157 74.3814 -115.901 77.0391 -118.502 80.4487C-121.035 83.8616 -122.411 87.7494 -122.63 92.1118C-122.825 95.9896 -122.226 99.2479 -120.831 101.887C-119.434 104.456 -117.563 106.598 -115.22 108.313C-112.873 109.958 -110.269 111.339 -107.41 112.455C-104.481 113.574 -101.578 114.519 -98.7014 115.288C-95.7552 116.062 -93.086 116.821 -90.6938 117.566C-88.3015 118.311 -86.3681 119.207 -84.8935 120.253C-83.419 121.299 -82.7235 122.653 -82.8072 124.315C-82.8664 125.492 -83.3342 126.51 -84.2105 127.368C-85.014 128.161 -86.2953 128.791 -88.0543 129.257C-89.8099 129.655 -92.1072 129.782 -94.9463 129.639C-99.1702 129.427 -103.396 128.554 -107.623 127.023C-110.366 125.968 -112.89 124.772 -115.196 123.437C-116.381 122.75 -117.509 122.026 -118.579 121.264L-126.094 136.089C-122.75 138.618 -118.382 140.782 -112.988 142.581C-107.521 144.314 -101.811 145.33 -95.8555 145.63C-88.654 145.993 -82.6448 145.219 -77.828 143.31ZM-60.8301 149.941L-21.1448 71.0364L4.31294 72.3182L35.9875 154.815L5.75086 153.293L0.792913 138.881L-24.6366 137.601L-31.017 151.442L-60.8301 149.941ZM-27.1368 133.47L3.69544 135.022L8.65338 149.434L30.0503 150.511L1.51182 76.1822L-18.7425 75.1624L-54.4986 146.254L-33.5172 147.311L-27.1368 133.47ZM-9.78665 95.8334L-20.2872 118.612L-1.62708 119.551L-9.78665 95.8334ZM-7.33387 115.259L-10.3267 106.559L-14.1782 114.914L-7.33387 115.259ZM39.9941 155.017L44.0571 74.3192L72.613 75.757L69.7733 132.158L104.465 133.904L103.242 158.201L39.9941 155.017ZM65.5772 135.951L68.4169 79.5508L47.8509 78.5153L44.1902 151.223L99.4482 154.005L100.269 137.698L65.5772 135.951ZM138.498 111.299L170.801 112.925L170.027 128.298L137.724 126.671L137.054 139.967L175.07 141.881L174.27 157.773L115.896 154.834L119.557 82.1256L176.58 84.9967L175.78 100.889L139.115 99.0425L138.498 111.299ZM142.909 103.239L179.574 105.085L180.776 81.2029L115.763 77.9295L111.7 158.627L178.064 161.969L179.266 138.087L141.25 136.173L141.517 130.868L173.821 132.494L174.997 109.132L142.694 107.505L142.909 103.239Z" fill="#FF3C09"></path><path fill-rule="evenodd" clip-rule="evenodd" d="M275.371 166L275.342 165.991C269.673 164.1 264.879 161.761 261.089 158.895L258.422 156.878L269.55 134.927L273.336 137.621C276.166 139.634 279.501 141.399 283.372 142.891C287.237 144.287 291.06 145.069 294.851 145.26C297.461 145.391 299.332 145.261 300.588 144.987C301.989 144.607 302.485 144.226 302.576 144.136L302.586 144.126C302.709 144.006 302.747 143.932 302.759 143.906C302.769 143.884 302.788 143.837 302.794 143.729C302.799 143.621 302.79 143.561 302.785 143.537C302.781 143.515 302.776 143.505 302.772 143.496C302.767 143.486 302.697 143.35 302.388 143.131C301.36 142.402 299.846 141.665 297.712 141C295.388 140.277 292.779 139.534 289.879 138.773L289.87 138.77L289.861 138.768C286.843 137.961 283.809 136.973 280.758 135.807L280.745 135.802L280.732 135.797C277.595 134.573 274.706 133.045 272.08 131.204L272.047 131.18L272.014 131.157C269.191 129.091 266.928 126.498 265.251 123.414L265.239 123.392L265.228 123.371C263.41 119.932 262.75 115.911 262.971 111.526C263.229 106.398 264.864 101.746 267.881 97.6808L267.897 97.6592L267.913 97.6378C271.05 93.527 275.453 90.4777 280.871 88.3643C286.437 86.1928 293.049 85.3976 300.553 85.7754C305.631 86.0311 310.58 86.8696 315.393 88.2932C320.302 89.6578 324.714 91.5733 328.586 94.0748L331.535 95.9802L321.022 118.102L317.236 115.804C314.105 113.904 311.032 112.486 308.018 111.522L307.982 111.51L307.946 111.498C304.916 110.465 302.018 109.896 299.241 109.756C296.641 109.625 294.852 109.828 293.704 110.177L293.636 110.198L293.566 110.217C292.233 110.57 291.794 110.969 291.703 111.074C291.488 111.321 291.389 111.553 291.371 111.915C291.366 112.007 291.374 112.055 291.377 112.072C291.38 112.086 291.383 112.092 291.386 112.099C291.39 112.106 291.444 112.215 291.672 112.397C292.723 113.072 294.23 113.763 296.298 114.412C298.731 115.082 301.367 115.797 304.207 116.557C307.282 117.364 310.311 118.349 313.293 119.51C316.527 120.674 319.482 122.217 322.134 124.153C325.005 126.174 327.252 128.801 328.857 131.972C330.675 135.344 331.333 139.293 331.116 143.593C330.863 148.632 329.167 153.241 326.103 157.336C323.03 161.475 318.647 164.534 313.231 166.648C307.719 168.831 301.098 169.621 293.539 169.24C287.255 168.924 281.205 167.85 275.399 166.009L275.371 166ZM311.768 162.925C316.654 161.019 320.363 158.359 322.895 154.946C325.5 151.468 326.909 147.616 327.121 143.392C327.313 139.584 326.71 136.395 325.312 133.825C323.987 131.19 322.151 129.05 319.804 127.404C317.461 125.689 314.823 124.307 311.891 123.257C309.031 122.141 306.128 121.197 303.182 120.423C300.305 119.654 297.634 118.929 295.169 118.25C292.777 117.505 290.842 116.644 289.364 115.667C287.958 114.624 287.296 113.306 287.376 111.714C287.439 110.467 287.875 109.378 288.686 108.447C289.496 107.516 290.781 106.817 292.54 106.351C294.303 105.815 296.604 105.618 299.443 105.761C302.628 105.921 305.893 106.572 309.237 107.712C311.423 108.411 313.614 109.318 315.809 110.433C316.975 111.025 318.142 111.675 319.311 112.384L326.415 97.4347C322.919 95.176 318.878 93.4106 314.29 92.1383C309.776 90.8002 305.13 90.0109 300.352 89.7704C293.22 89.4113 287.21 90.1847 282.324 92.0908C277.438 93.9969 273.695 96.6546 271.093 100.064C268.561 103.477 267.185 107.365 266.966 111.727C266.77 115.605 267.37 118.863 268.764 121.502C270.162 124.072 272.033 126.214 274.376 127.928C276.723 129.574 279.326 130.955 282.186 132.07C285.115 133.19 288.017 134.134 290.894 134.904C293.841 135.677 296.51 136.436 298.902 137.181C301.294 137.927 303.228 138.822 304.702 139.869C306.177 140.915 306.872 142.269 306.789 143.931C306.729 145.108 306.261 146.126 305.385 146.984C304.582 147.776 303.3 148.406 301.541 148.873C299.786 149.271 297.489 149.398 294.649 149.255C290.425 149.042 286.2 148.17 281.973 146.638C279.23 145.583 276.705 144.388 274.4 143.052C273.214 142.365 272.087 141.641 271.017 140.88L263.502 155.705C266.845 158.233 271.214 160.397 276.608 162.196C282.074 163.929 287.785 164.946 293.74 165.245C300.942 165.608 306.951 164.835 311.768 162.925ZM328.766 169.556L368.451 90.6519L393.909 91.9336L425.583 174.431L395.347 172.908L390.389 158.497L364.959 157.217L358.579 171.057L328.766 169.556ZM362.459 153.086L393.291 154.638L398.249 169.049L419.646 170.127L391.108 95.7977L370.853 94.7779L335.097 165.87L356.078 166.926L362.459 153.086ZM379.809 115.449L369.308 138.227L387.969 139.167L379.809 115.449ZM382.262 134.874L379.269 126.175L375.418 134.53L382.262 134.874ZM429.59 174.632L433.653 93.9347L462.209 95.3725L459.369 151.773L494.061 153.52L492.838 177.817L429.59 174.632ZM455.173 155.567L458.013 99.1663L437.447 98.1308L433.786 170.839L489.044 173.621L489.865 157.314L455.173 155.567ZM528.093 130.914L560.396 132.541L559.622 147.913L527.319 146.287L526.65 159.582L564.666 161.496L563.866 177.388L505.492 174.449L509.152 101.741L566.176 104.612L565.376 120.504L528.71 118.658L528.093 130.914ZM532.504 122.854L569.17 124.7L570.372 100.818L505.359 97.545L501.296 178.243L567.659 181.584L568.862 157.702L530.846 155.788L531.113 150.483L563.416 152.109L564.592 128.747L532.289 127.121L532.504 122.854Z" fill="#FF3C09"></path><path fill-rule="evenodd" clip-rule="evenodd" d="M664.966 185.616L664.938 185.606C659.269 183.715 654.474 181.377 650.685 178.511L648.018 176.494L659.145 154.543L662.931 157.236C665.762 159.25 669.096 161.014 672.968 162.506C676.833 163.903 680.655 164.685 684.446 164.876C687.057 165.007 688.928 164.877 690.184 164.603C691.585 164.223 692.081 163.841 692.172 163.752L692.182 163.742C692.305 163.622 692.343 163.547 692.354 163.522C692.365 163.499 692.384 163.452 692.389 163.345C692.395 163.237 692.386 163.177 692.381 163.153C692.376 163.131 692.372 163.121 692.367 163.112C692.362 163.102 692.292 162.966 691.983 162.747C690.956 162.018 689.441 161.281 687.308 160.616C684.984 159.892 682.374 159.15 679.475 158.389L679.466 158.386L679.456 158.384C676.439 157.577 673.405 156.589 670.353 155.423L670.34 155.418L670.327 155.412C667.191 154.189 664.302 152.661 661.676 150.819L661.643 150.796L661.61 150.772C658.787 148.706 656.524 146.113 654.846 143.029L654.835 143.008L654.823 142.987C653.006 139.548 652.345 135.527 652.566 131.142C652.824 126.014 654.46 121.362 657.476 117.296L657.493 117.275L657.509 117.254C660.645 113.143 665.049 110.093 670.466 107.98C676.033 105.809 682.644 105.013 690.149 105.391C695.227 105.647 700.176 106.485 704.989 107.909C709.898 109.274 714.31 111.189 718.182 113.691L721.131 115.596L710.618 137.718L706.831 135.42C703.7 133.52 700.628 132.102 697.614 131.137L697.578 131.126L697.542 131.114C694.512 130.08 691.614 129.511 688.837 129.372C686.237 129.241 684.448 129.444 683.3 129.793L683.231 129.814L683.162 129.832C681.829 130.186 681.39 130.585 681.299 130.689C681.084 130.936 680.985 131.169 680.967 131.531C680.962 131.623 680.97 131.671 680.973 131.687C680.976 131.702 680.979 131.708 680.982 131.715C680.986 131.722 681.04 131.831 681.268 132.013C682.318 132.688 683.825 133.379 685.893 134.027C688.326 134.698 690.963 135.413 693.802 136.173C696.878 136.98 699.907 137.965 702.889 139.126C706.123 140.29 709.077 141.833 711.73 143.768C714.601 145.79 716.848 148.417 718.453 151.588C720.27 154.959 720.928 158.909 720.712 163.209C720.458 168.248 718.763 172.857 715.698 176.952C712.625 181.091 708.242 184.149 702.827 186.263C697.314 188.446 690.694 189.237 683.135 188.856C676.851 188.54 670.801 187.465 664.995 185.625L664.966 185.616ZM701.363 182.541C706.249 180.635 709.959 177.975 712.491 174.562C715.096 171.083 716.504 167.232 716.717 163.008C716.909 159.2 716.306 156.011 714.908 153.441C713.583 150.806 711.747 148.665 709.4 147.02C707.056 145.305 704.419 143.923 701.486 142.873C698.627 141.757 695.724 140.812 692.778 140.039C689.901 139.27 687.23 138.545 684.765 137.866C682.373 137.12 680.438 136.259 678.959 135.282C677.554 134.24 676.892 132.922 676.972 131.329C677.034 130.083 677.471 128.994 678.282 128.063C679.092 127.132 680.377 126.433 682.136 125.966C683.898 125.43 686.199 125.234 689.038 125.377C692.224 125.537 695.488 126.187 698.833 127.328C701.019 128.027 703.21 128.934 705.405 130.049C706.571 130.641 707.738 131.291 708.906 132L716.011 117.05C712.515 114.792 708.473 113.026 703.886 111.754C699.372 110.416 694.725 109.627 689.948 109.386C682.815 109.027 676.806 109.8 671.92 111.707C667.034 113.613 663.29 116.27 660.689 119.68C658.157 123.093 656.781 126.981 656.561 131.343C656.366 135.221 656.966 138.479 658.36 141.118C659.758 143.687 661.628 145.83 663.972 147.544C666.319 149.19 668.922 150.57 671.782 151.686C674.71 152.805 677.613 153.75 680.49 154.52C683.436 155.293 686.105 156.052 688.498 156.797C690.89 157.542 692.823 158.438 694.298 159.484C695.772 160.53 696.468 161.884 696.384 163.546C696.325 164.723 695.857 165.741 694.981 166.6C694.177 167.392 692.896 168.022 691.137 168.489C689.382 168.886 687.084 169.014 684.245 168.871C680.021 168.658 675.796 167.786 671.569 166.254C668.825 165.199 666.301 164.004 663.996 162.668C662.81 161.981 661.682 161.257 660.612 160.496L653.097 175.321C656.441 177.849 660.81 180.013 666.204 181.812C671.67 183.545 677.381 184.561 683.336 184.861C690.537 185.224 696.547 184.45 701.363 182.541ZM718.361 189.172L758.047 110.268L783.504 111.549L815.179 194.046L784.942 192.524L779.984 178.113L754.555 176.832L748.174 190.673L718.361 189.172ZM752.055 172.701L782.887 174.254L787.845 188.665L809.242 189.742L780.703 115.413L760.449 114.394L724.693 185.486L745.674 186.542L752.055 172.701ZM769.405 135.065L758.904 157.843L777.564 158.782L769.405 135.065ZM771.858 154.49L768.865 145.791L765.013 154.145L771.858 154.49ZM819.185 194.248L823.249 113.55L851.804 114.988L848.965 171.389L883.657 173.135L882.433 197.433L819.185 194.248ZM844.769 175.183L847.608 118.782L827.042 117.747L823.382 190.454L878.64 193.237L879.461 176.929L844.769 175.183ZM917.689 150.53L949.992 152.157L949.218 167.529L916.915 165.903L916.246 179.198L954.261 181.112L953.461 197.004L895.087 194.065L898.748 121.357L955.772 124.228L954.972 140.12L918.306 138.274L917.689 150.53ZM922.1 142.47L958.765 144.316L959.968 120.434L894.954 117.161L890.891 197.859L957.255 201.2L958.458 177.318L920.442 175.404L920.709 170.099L953.012 171.725L954.188 148.363L921.885 146.736L922.1 142.47Z" fill="#FF3C09"></path><path fill-rule="evenodd" clip-rule="evenodd" d="M1054.56 205.231L1054.53 205.222C1048.86 203.331 1044.07 200.993 1040.28 198.127L1037.61 196.11L1048.74 174.158L1052.53 176.852C1055.36 178.866 1058.69 180.63 1062.56 182.122C1066.43 183.519 1070.25 184.301 1074.04 184.491C1076.65 184.623 1078.52 184.493 1079.78 184.219C1081.18 183.839 1081.67 183.457 1081.77 183.368L1081.78 183.358C1081.9 183.238 1081.94 183.163 1081.95 183.138C1081.96 183.115 1081.98 183.068 1081.98 182.961C1081.99 182.852 1081.98 182.792 1081.97 182.769C1081.97 182.747 1081.97 182.737 1081.96 182.728C1081.96 182.718 1081.89 182.582 1081.58 182.362C1080.55 181.634 1079.04 180.896 1076.9 180.232C1074.58 179.508 1071.97 178.765 1069.07 178.004L1069.06 178.002L1069.05 177.999C1066.03 177.192 1063 176.204 1059.95 175.038L1059.93 175.033L1059.92 175.028C1056.78 173.804 1053.9 172.277 1051.27 170.435L1051.24 170.412L1051.2 170.388C1048.38 168.322 1046.12 165.729 1044.44 162.645L1044.43 162.624L1044.42 162.602C1042.6 159.163 1041.94 155.143 1042.16 150.758C1042.42 145.63 1044.05 140.978 1047.07 136.912L1047.09 136.891L1047.1 136.869C1050.24 132.758 1054.64 129.709 1060.06 127.596C1065.63 125.424 1072.24 124.629 1079.74 125.007C1084.82 125.263 1089.77 126.101 1094.58 127.525C1099.49 128.889 1103.9 130.805 1107.78 133.306L1110.72 135.212L1100.21 157.333L1096.42 155.035C1093.29 153.135 1090.22 151.717 1087.21 150.753L1087.17 150.742L1087.14 150.729C1084.11 149.696 1081.21 149.127 1078.43 148.987C1075.83 148.856 1074.04 149.06 1072.89 149.409L1072.82 149.43L1072.76 149.448C1071.42 149.802 1070.98 150.2 1070.89 150.305C1070.68 150.552 1070.58 150.784 1070.56 151.146C1070.56 151.238 1070.56 151.287 1070.57 151.303C1070.57 151.318 1070.57 151.324 1070.58 151.331C1070.58 151.338 1070.63 151.446 1070.86 151.628C1071.91 152.303 1073.42 152.995 1075.49 153.643C1077.92 154.314 1080.56 155.029 1083.4 155.788C1086.47 156.596 1089.5 157.58 1092.48 158.742C1095.72 159.905 1098.67 161.448 1101.32 163.384C1104.19 165.405 1106.44 168.033 1108.05 171.203C1109.86 174.575 1110.52 178.525 1110.31 182.825C1110.05 187.863 1108.36 192.473 1105.29 196.568C1102.22 200.707 1097.84 203.765 1092.42 205.879C1086.91 208.062 1080.29 208.852 1072.73 208.472C1066.44 208.155 1060.39 207.081 1054.59 205.24L1054.56 205.231ZM1090.96 202.156C1095.84 200.25 1099.55 197.591 1102.08 194.178C1104.69 190.699 1106.1 186.848 1106.31 182.624C1106.5 178.815 1105.9 175.626 1104.5 173.057C1103.18 170.421 1101.34 168.281 1098.99 166.636C1096.65 164.921 1094.01 163.539 1091.08 162.488C1088.22 161.373 1085.32 160.428 1082.37 159.655C1079.49 158.885 1076.82 158.161 1074.36 157.481C1071.97 156.736 1070.03 155.875 1068.55 154.898C1067.15 153.855 1066.49 152.538 1066.57 150.945C1066.63 149.699 1067.06 148.61 1067.88 147.679C1068.69 146.748 1069.97 146.049 1071.73 145.582C1073.49 145.046 1075.79 144.849 1078.63 144.992C1081.82 145.153 1085.08 145.803 1088.43 146.943C1090.61 147.643 1092.8 148.55 1095 149.664C1096.16 150.256 1097.33 150.907 1098.5 151.616L1105.6 136.666C1102.11 134.407 1098.07 132.642 1093.48 131.37C1088.97 130.032 1084.32 129.242 1079.54 129.002C1072.41 128.643 1066.4 129.416 1061.51 131.322C1056.63 133.228 1052.88 135.886 1050.28 139.296C1047.75 142.709 1046.37 146.596 1046.15 150.959C1045.96 154.837 1046.56 158.095 1047.95 160.734C1049.35 163.303 1051.22 165.445 1053.57 167.16C1055.91 168.805 1058.52 170.186 1061.38 171.302C1064.3 172.421 1067.21 173.366 1070.08 174.135C1073.03 174.908 1075.7 175.668 1078.09 176.413C1080.48 177.158 1082.42 178.054 1083.89 179.1C1085.37 180.146 1086.06 181.5 1085.98 183.162C1085.92 184.339 1085.45 185.357 1084.57 186.215C1083.77 187.008 1082.49 187.638 1080.73 188.104C1078.98 188.502 1076.68 188.629 1073.84 188.486C1069.61 188.274 1065.39 187.401 1061.16 185.87C1058.42 184.815 1055.89 183.619 1053.59 182.284C1052.4 181.597 1051.28 180.873 1050.21 180.111L1042.69 194.936C1046.03 197.465 1050.4 199.629 1055.8 201.427C1061.26 203.161 1066.97 204.177 1072.93 204.477C1080.13 204.839 1086.14 204.066 1090.96 202.156ZM1107.96 208.788L1147.64 129.883L1173.1 131.165L1204.77 213.662L1174.54 212.14L1169.58 197.728L1144.15 196.448L1137.77 210.289L1107.96 208.788ZM1141.65 192.317L1172.48 193.869L1177.44 208.281L1198.84 209.358L1170.3 135.029L1150.04 134.009L1114.29 205.101L1135.27 206.158L1141.65 192.317ZM1159 154.68L1148.5 177.459L1167.16 178.398L1159 154.68ZM1161.45 174.106L1158.46 165.406L1154.61 173.761L1161.45 174.106ZM1208.78 213.864L1212.84 133.166L1241.4 134.604L1238.56 191.004L1273.25 192.751L1272.03 217.048L1208.78 213.864ZM1234.36 194.798L1237.2 138.398L1216.64 137.362L1212.98 210.07L1268.23 212.852L1269.05 196.545L1234.36 194.798ZM1307.28 170.146L1339.59 171.772L1338.81 187.145L1306.51 185.518L1305.84 198.814L1343.86 200.728L1343.06 216.62L1284.68 213.68L1288.34 140.973L1345.37 143.844L1344.57 159.735L1307.9 157.889L1307.28 170.146ZM1311.69 162.086L1348.36 163.932L1349.56 140.05L1284.55 136.776L1280.48 217.474L1346.85 220.816L1348.05 196.934L1310.04 195.02L1310.3 189.715L1342.61 191.341L1343.78 167.979L1311.48 166.352L1311.69 162.086Z" fill="#FF3C09"></path><path fill-rule="evenodd" clip-rule="evenodd" d="M1444.16 224.847L1444.13 224.838C1438.46 222.947 1433.66 220.608 1429.87 217.742L1427.21 215.726L1438.33 193.774L1442.12 196.468C1444.95 198.482 1448.29 200.246 1452.16 201.738C1456.02 203.135 1459.84 203.916 1463.64 204.107C1466.25 204.239 1468.12 204.108 1469.37 203.834C1470.77 203.454 1471.27 203.073 1471.36 202.983L1471.37 202.974C1471.49 202.853 1471.53 202.779 1471.54 202.754C1471.55 202.731 1471.57 202.684 1471.58 202.577C1471.58 202.468 1471.58 202.408 1471.57 202.384C1471.57 202.362 1471.56 202.352 1471.56 202.343C1471.55 202.334 1471.48 202.197 1471.17 201.978C1470.15 201.249 1468.63 200.512 1466.5 199.848C1464.17 199.124 1461.56 198.381 1458.66 197.62L1458.65 197.618L1458.65 197.615C1455.63 196.808 1452.59 195.82 1449.54 194.654L1449.53 194.649L1449.52 194.644C1446.38 193.42 1443.49 191.892 1440.87 190.051L1440.83 190.028L1440.8 190.004C1437.98 187.938 1435.71 185.345 1434.04 182.261L1434.02 182.24L1434.01 182.218C1432.2 178.779 1431.53 174.758 1431.76 170.373C1432.01 165.245 1433.65 160.594 1436.67 156.528L1436.68 156.506L1436.7 156.485C1439.83 152.374 1444.24 149.325 1449.66 147.211C1455.22 145.04 1461.83 144.245 1469.34 144.623C1474.42 144.878 1479.37 145.717 1484.18 147.14C1489.09 148.505 1493.5 150.42 1497.37 152.922L1500.32 154.827L1489.81 176.949L1486.02 174.651C1482.89 172.751 1479.82 171.333 1476.8 170.369L1476.77 170.357L1476.73 170.345C1473.7 169.312 1470.8 168.743 1468.03 168.603C1465.43 168.472 1463.64 168.675 1462.49 169.025L1462.42 169.046L1462.35 169.064C1461.02 169.418 1460.58 169.816 1460.49 169.921C1460.27 170.168 1460.17 170.4 1460.16 170.762C1460.15 170.854 1460.16 170.903 1460.16 170.919C1460.17 170.933 1460.17 170.939 1460.17 170.947C1460.18 170.953 1460.23 171.062 1460.46 171.244C1461.51 171.919 1463.01 172.61 1465.08 173.259C1467.52 173.929 1470.15 174.644 1472.99 175.404C1476.07 176.211 1479.1 177.196 1482.08 178.358C1485.31 179.521 1488.27 181.064 1490.92 183C1493.79 185.021 1496.04 187.649 1497.64 190.819C1499.46 194.191 1500.12 198.14 1499.9 202.441C1499.65 207.479 1497.95 212.088 1494.89 216.183C1491.81 220.322 1487.43 223.381 1482.02 225.495C1476.5 227.678 1469.88 228.468 1462.32 228.088C1456.04 227.771 1449.99 226.697 1444.18 224.856L1444.16 224.847ZM1480.55 221.772C1485.44 219.866 1489.15 217.207 1491.68 213.794C1494.29 210.315 1495.69 206.463 1495.91 202.239C1496.1 198.431 1495.5 195.242 1494.1 192.672C1492.77 190.037 1490.94 187.897 1488.59 186.251C1486.25 184.537 1483.61 183.154 1480.68 182.104C1477.82 180.988 1474.91 180.044 1471.97 179.271C1469.09 178.501 1466.42 177.776 1463.95 177.097C1461.56 176.352 1459.63 175.491 1458.15 174.514C1456.74 173.471 1456.08 172.153 1456.16 170.561C1456.22 169.314 1456.66 168.226 1457.47 167.295C1458.28 166.363 1459.57 165.665 1461.33 165.198C1463.09 164.662 1465.39 164.465 1468.23 164.608C1471.41 164.768 1474.68 165.419 1478.02 166.559C1480.21 167.259 1482.4 168.166 1484.59 169.28C1485.76 169.872 1486.93 170.522 1488.1 171.232L1495.2 156.282C1491.7 154.023 1487.66 152.258 1483.08 150.985C1478.56 149.647 1473.91 148.858 1469.14 148.618C1462 148.258 1456 149.032 1451.11 150.938C1446.22 152.844 1442.48 155.502 1439.88 158.911C1437.35 162.324 1435.97 166.212 1435.75 170.574C1435.56 174.452 1436.15 177.711 1437.55 180.349C1438.95 182.919 1440.82 185.061 1443.16 186.776C1445.51 188.421 1448.11 189.802 1450.97 190.918C1453.9 192.037 1456.8 192.981 1459.68 193.751C1462.63 194.524 1465.29 195.283 1467.69 196.029C1470.08 196.774 1472.01 197.67 1473.49 198.716C1474.96 199.762 1475.66 201.116 1475.57 202.778C1475.51 203.955 1475.05 204.973 1474.17 205.831C1473.37 206.624 1472.09 207.253 1470.33 207.72C1468.57 208.118 1466.27 208.245 1463.43 208.102C1459.21 207.889 1454.99 207.017 1450.76 205.485C1448.01 204.43 1445.49 203.235 1443.19 201.899C1442 201.212 1440.87 200.488 1439.8 199.727L1432.29 214.552C1435.63 217.081 1440 219.244 1445.39 221.043C1450.86 222.776 1456.57 223.793 1462.53 224.093C1469.73 224.455 1475.74 223.682 1480.55 221.772ZM1497.55 228.403L1537.24 149.499L1562.69 150.781L1594.37 233.278L1564.13 231.756L1559.17 217.344L1533.74 216.064L1527.36 229.904L1497.55 228.403ZM1531.24 211.933L1562.08 213.485L1567.03 227.897L1588.43 228.974L1559.89 154.645L1539.64 153.625L1503.88 224.717L1524.86 225.773L1531.24 211.933ZM1548.59 174.296L1538.09 197.074L1556.75 198.014L1548.59 174.296ZM1551.05 193.721L1548.05 185.022L1544.2 193.377L1551.05 193.721ZM1598.37 233.48L1602.44 152.782L1630.99 154.22L1628.15 210.62L1662.85 212.367L1661.62 236.664L1598.37 233.48ZM1623.96 214.414L1626.8 158.013L1606.23 156.978L1602.57 229.686L1657.83 232.468L1658.65 216.161L1623.96 214.414ZM1696.88 189.762L1729.18 191.388L1728.41 206.761L1696.1 205.134L1695.44 218.429L1733.45 220.343L1732.65 236.235L1674.28 233.296L1677.94 160.588L1734.96 163.459L1734.16 179.351L1697.5 177.505L1696.88 189.762ZM1701.29 181.701L1737.95 183.547L1739.16 159.666L1674.14 156.392L1670.08 237.09L1736.44 240.431L1737.65 216.55L1699.63 214.636L1699.9 209.33L1732.2 210.957L1733.38 187.594L1701.07 185.968L1701.29 181.701Z" fill="#FF3C09"></path><path fill-rule="evenodd" clip-rule="evenodd" d="M1833.75 244.463L1833.72 244.453C1828.05 242.562 1823.26 240.224 1819.47 237.358L1816.8 235.341L1827.93 213.39L1831.71 216.083C1834.54 218.097 1837.88 219.861 1841.75 221.353C1845.62 222.75 1849.44 223.532 1853.23 223.723C1855.84 223.854 1857.71 223.724 1858.97 223.45C1860.37 223.07 1860.86 222.688 1860.96 222.599L1860.97 222.589C1861.09 222.469 1861.13 222.394 1861.14 222.369C1861.15 222.346 1861.17 222.299 1861.17 222.192C1861.18 222.084 1861.17 222.024 1861.16 222C1861.16 221.978 1861.16 221.968 1861.15 221.959C1861.15 221.949 1861.08 221.813 1860.77 221.594C1859.74 220.865 1858.22 220.128 1856.09 219.463C1853.77 218.739 1851.16 217.996 1848.26 217.236L1848.25 217.233L1848.24 217.231C1845.22 216.423 1842.19 215.436 1839.14 214.269L1839.12 214.264L1839.11 214.259C1835.97 213.036 1833.09 211.508 1830.46 209.666L1830.43 209.643L1830.39 209.619C1827.57 207.553 1825.31 204.96 1823.63 201.876L1823.62 201.855L1823.61 201.834C1821.79 198.394 1821.13 194.374 1821.35 189.989C1821.61 184.861 1823.24 180.209 1826.26 176.143L1826.28 176.122L1826.29 176.1C1829.43 171.99 1833.83 168.94 1839.25 166.827C1844.82 164.655 1851.43 163.86 1858.93 164.238C1864.01 164.494 1868.96 165.332 1873.77 166.756C1878.68 168.12 1883.09 170.036 1886.96 172.537L1889.91 174.443L1879.4 196.565L1875.61 194.267C1872.48 192.367 1869.41 190.949 1866.4 189.984L1866.36 189.973L1866.32 189.96C1863.3 188.927 1860.4 188.358 1857.62 188.218C1855.02 188.088 1853.23 188.291 1852.08 188.64L1852.01 188.661L1851.95 188.679C1850.61 189.033 1850.17 189.431 1850.08 189.536C1849.87 189.783 1849.77 190.015 1849.75 190.377C1849.75 190.47 1849.75 190.518 1849.76 190.534C1849.76 190.549 1849.76 190.555 1849.77 190.562C1849.77 190.569 1849.82 190.678 1850.05 190.859C1851.1 191.535 1852.61 192.226 1854.68 192.874C1857.11 193.545 1859.75 194.26 1862.59 195.02C1865.66 195.827 1868.69 196.812 1871.67 197.973C1874.91 199.137 1877.86 200.679 1880.51 202.615C1883.38 204.637 1885.63 207.264 1887.24 210.434C1889.05 213.806 1889.71 217.756 1889.5 222.056C1889.24 227.095 1887.55 231.704 1884.48 235.799C1881.41 239.938 1877.03 242.996 1871.61 245.11C1866.1 247.293 1859.48 248.084 1851.92 247.703C1845.63 247.387 1839.58 246.312 1833.78 244.472L1833.75 244.463ZM1870.15 241.388C1875.03 239.482 1878.74 236.822 1881.27 233.409C1883.88 229.93 1885.29 226.079 1885.5 221.855C1885.69 218.046 1885.09 214.857 1883.69 212.288C1882.37 209.653 1880.53 207.512 1878.18 205.867C1875.84 204.152 1873.2 202.77 1870.27 201.72C1867.41 200.604 1864.51 199.659 1861.56 198.886C1858.68 198.116 1856.01 197.392 1853.55 196.712C1851.16 195.967 1849.22 195.106 1847.74 194.129C1846.34 193.087 1845.67 191.769 1845.75 190.176C1845.82 188.93 1846.25 187.841 1847.06 186.91C1847.88 185.979 1849.16 185.28 1850.92 184.813C1852.68 184.277 1854.98 184.081 1857.82 184.224C1861.01 184.384 1864.27 185.034 1867.62 186.175C1869.8 186.874 1871.99 187.781 1874.19 188.896C1875.35 189.488 1876.52 190.138 1877.69 190.847L1884.79 175.897C1881.3 173.639 1877.26 171.873 1872.67 170.601C1868.15 169.263 1863.51 168.474 1858.73 168.233C1851.6 167.874 1845.59 168.647 1840.7 170.553C1835.82 172.459 1832.07 175.117 1829.47 178.527C1826.94 181.94 1825.56 185.827 1825.34 190.19C1825.15 194.068 1825.75 197.326 1827.14 199.965C1828.54 202.534 1830.41 204.676 1832.76 206.391C1835.1 208.037 1837.71 209.417 1840.56 210.533C1843.49 211.652 1846.4 212.597 1849.27 213.367C1852.22 214.14 1854.89 214.899 1857.28 215.644C1859.67 216.389 1861.61 217.285 1863.08 218.331C1864.56 219.377 1865.25 220.731 1865.17 222.393C1865.11 223.57 1864.64 224.588 1863.76 225.447C1862.96 226.239 1861.68 226.869 1859.92 227.336C1858.16 227.733 1855.87 227.86 1853.03 227.718C1848.8 227.505 1844.58 226.633 1840.35 225.101C1837.61 224.046 1835.08 222.851 1832.78 221.515C1831.59 220.828 1830.47 220.104 1829.4 219.343L1821.88 234.167C1825.22 236.696 1829.59 238.86 1834.99 240.659C1840.45 242.392 1846.16 243.408 1852.12 243.708C1859.32 244.071 1865.33 243.297 1870.15 241.388ZM1887.14 248.019L1926.83 169.115L1952.29 170.396L1983.96 252.893L1953.73 251.371L1948.77 236.959L1923.34 235.679L1916.96 249.52L1887.14 248.019ZM1920.84 231.548L1951.67 233.101L1956.63 247.512L1978.02 248.589L1949.49 174.26L1929.23 173.241L1893.48 244.332L1914.46 245.389L1920.84 231.548ZM1938.19 193.912L1927.69 216.69L1946.35 217.629L1938.19 193.912ZM1940.64 213.337L1937.65 204.638L1933.8 212.992L1940.64 213.337ZM1987.97 253.095L1992.03 172.397L2020.59 173.835L2017.75 230.236L2052.44 231.982L2051.22 256.28L1987.97 253.095ZM2013.55 234.029L2016.39 177.629L1995.83 176.593L1992.16 249.301L2047.42 252.084L2048.24 235.776L2013.55 234.029ZM2086.47 209.377L2118.78 211.004L2118 226.376L2085.7 224.75L2085.03 238.045L2123.04 239.959L2122.24 255.851L2063.87 252.912L2067.53 180.204L2124.56 183.075L2123.75 198.967L2087.09 197.121L2086.47 209.377ZM2090.88 201.317L2127.55 203.163L2128.75 179.281L2063.74 176.008L2059.67 256.705L2126.04 260.047L2127.24 236.165L2089.22 234.251L2089.49 228.946L2121.8 230.572L2122.97 207.21L2090.67 205.583L2090.88 201.317Z" fill="#FF3C09"></path><path d="M-985.578 0.99494L2211.08 161.943L2211.48 153.953L-985.176 -6.99494L-985.578 0.99494ZM2204.86 285.499L-991.799 124.55L-992.201 132.54L2204.46 293.488L2204.86 285.499Z" fill="#211E1C" mask="url(#path-2-inside-1_24_104)"></path><mask id="path-10-inside-2_24_104" fill="white"><path d="M-410 244.448L2315.37 -41.9999L2329.13 88.9905L-396.232 375.438L-410 244.448Z"></path></mask><path d="M-410 244.448L2315.37 -41.9999L2329.13 88.9905L-396.232 375.438L-410 244.448Z" fill="#100F0F"></path><path fill-rule="evenodd" clip-rule="evenodd" d="M56.3364 280.105L53.913 257.048L92.0708 253.038L94.4942 276.095L56.3364 280.105ZM108.792 285.902L108.762 285.869C105.139 282.016 103.066 277.287 102.496 271.859C101.931 266.488 102.997 261.538 105.853 257.233L105.858 257.225C106.675 256 107.595 254.854 108.612 253.787C108.349 253.554 108.091 253.315 107.838 253.07L107.822 253.054L107.806 253.038C104.298 249.566 102.308 245.197 101.777 240.145C101.237 235.014 102.197 230.255 104.804 226.063L104.818 226.04L104.833 226.017C107.421 221.98 111.141 218.773 115.799 216.329C120.493 213.793 125.915 212.253 131.976 211.616C138.092 210.973 143.723 211.347 148.79 212.865C153.846 214.287 158.126 216.655 161.436 220.09C164.931 223.636 166.906 228.094 167.447 233.243C167.978 238.293 166.94 242.979 164.234 247.103C164.024 247.423 163.807 247.738 163.583 248.046C164.774 248.871 165.883 249.792 166.906 250.813C170.658 254.415 172.772 259.032 173.337 264.414C173.908 269.841 172.864 274.898 170.121 279.42L170.111 279.437L170.101 279.454C167.389 283.829 163.381 287.29 158.308 289.918C153.274 292.554 147.381 294.17 140.726 294.869C134.067 295.569 127.964 295.213 122.49 293.679C117.047 292.153 112.434 289.606 108.824 285.934L108.792 285.902ZM156.46 286.37C161.022 284.008 164.436 281 166.701 277.346C168.959 273.623 169.845 269.452 169.359 264.832C168.881 260.281 167.131 256.561 164.108 253.671C163.154 252.716 162.098 251.855 160.94 251.088C159.795 250.329 158.55 249.662 157.205 249.087C158.304 248.139 159.271 247.115 160.107 246.017C160.381 245.657 160.641 245.289 160.887 244.912C163.05 241.617 163.911 237.867 163.469 233.661C163.012 229.317 161.38 225.724 158.571 222.882C155.832 220.032 152.199 217.974 147.674 216.707C143.211 215.363 138.117 214.992 132.394 215.594C126.74 216.188 121.835 217.61 117.679 219.859C113.516 222.04 110.357 224.812 108.201 228.176C106.113 231.532 105.298 235.383 105.755 239.727C106.197 243.933 107.818 247.422 110.62 250.195C110.937 250.502 111.265 250.799 111.603 251.086C112.661 251.983 113.823 252.781 115.089 253.48C113.897 254.319 112.814 255.227 111.841 256.205C110.84 257.211 109.955 258.291 109.187 259.444C106.9 262.891 105.995 266.89 106.474 271.441C106.959 276.061 108.693 279.957 111.676 283.129C114.72 286.226 118.685 288.458 123.569 289.827C128.454 291.196 134.033 291.551 140.308 290.891C146.583 290.232 151.967 288.725 156.46 286.37ZM140.318 231.284C142.11 232.42 143.137 234.229 143.398 236.711C143.63 238.925 143.111 240.783 141.839 242.284C141.764 242.373 141.686 242.46 141.606 242.547C140.158 244.023 138.123 244.9 135.503 245.175C132.952 245.443 130.814 245.005 129.091 243.862C128.99 243.791 128.891 243.719 128.796 243.644C127.247 242.44 126.357 240.735 126.125 238.527C125.864 236.044 126.458 234.065 127.906 232.588C129.354 231.111 131.354 230.239 133.905 229.971C136.456 229.703 138.594 230.14 140.318 231.284ZM138.714 239.782C138.074 240.416 137.003 240.995 135.085 241.197C133.263 241.388 132.121 241.056 131.345 240.557C130.7 240.091 130.241 239.423 130.103 238.109C129.938 236.542 130.322 235.837 130.762 235.389C131.414 234.723 132.468 234.144 134.323 233.949C136.179 233.754 137.33 234.102 138.106 234.617L138.141 234.64L138.176 234.662C138.749 235.025 139.261 235.623 139.42 237.129C139.558 238.444 139.248 239.192 138.714 239.782ZM129.202 261.837C127.438 263.626 126.701 265.899 126.991 268.657C127.288 271.484 128.486 273.589 130.583 274.972C132.749 276.348 135.487 276.862 138.797 276.514C142.107 276.166 144.644 275.098 146.408 273.309C148.241 271.513 149.009 269.202 148.711 266.374C148.422 263.616 147.193 261.549 145.027 260.174C144.719 259.961 144.397 259.767 144.063 259.593C142.116 258.579 139.73 258.221 136.906 258.517C134.087 258.814 131.807 259.66 130.064 261.057C129.761 261.3 129.473 261.56 129.202 261.837ZM132.757 271.614C133.96 272.368 135.72 272.816 138.379 272.536C141.069 272.254 142.631 271.443 143.56 270.501L143.584 270.476L143.608 270.452C144.467 269.61 144.919 268.554 144.733 266.793C144.559 265.136 143.926 264.213 142.883 263.55L142.818 263.509L142.756 263.466C141.649 262.702 139.976 262.217 137.324 262.496C134.68 262.773 133.073 263.601 132.061 264.635L132.056 264.64L132.05 264.645C131.221 265.486 130.79 266.531 130.969 268.239C131.158 270.034 131.813 270.982 132.757 271.614ZM199.949 283.546L199.937 283.541C194.125 280.715 189.38 276.292 185.683 270.439C181.93 264.499 179.695 257.222 178.808 248.78C177.92 240.339 178.594 232.756 181.029 226.165C183.429 219.671 187.151 214.359 192.248 210.386L192.258 210.378L192.269 210.37C197.425 206.405 203.502 204.098 210.37 203.376C217.174 202.661 223.533 203.663 229.335 206.481C235.215 209.296 240.001 213.715 243.705 219.577C247.458 225.518 249.693 232.795 250.58 241.237C251.467 249.678 250.794 257.261 248.358 263.852C245.955 270.356 242.191 275.674 237.026 279.65C231.936 283.612 225.924 285.915 219.121 286.63C212.252 287.352 205.829 286.359 199.96 283.552L199.949 283.546ZM234.577 276.486C239.092 273.014 242.435 268.34 244.606 262.465C246.778 256.59 247.443 249.653 246.602 241.655C245.761 233.656 243.669 227.009 240.323 221.714C236.978 216.418 232.736 212.542 227.598 210.084C222.529 207.619 216.925 206.709 210.789 207.354C204.583 208.007 199.222 210.069 194.707 213.541C190.261 217.006 186.952 221.676 184.781 227.551C182.61 233.427 181.945 240.363 182.786 248.362C183.626 256.361 185.719 263.008 189.064 268.303C192.41 273.598 196.617 277.478 201.686 279.943C206.825 282.401 212.497 283.304 218.703 282.652C224.839 282.007 230.131 279.951 234.577 276.486ZM219.676 260.401L219.705 260.373C220.523 259.564 221.38 258.06 221.934 255.379C222.461 252.726 222.548 249.056 222.041 244.236C221.526 239.328 220.675 235.768 219.625 233.37C218.524 230.856 217.371 229.559 216.401 228.937L216.367 228.916L216.334 228.894C215.332 228.223 214.268 227.951 212.968 228.088C211.679 228.224 210.639 228.711 209.713 229.614C208.918 230.446 208.062 231.992 207.443 234.689C206.921 237.251 206.833 240.897 207.346 245.781C207.85 250.576 208.692 254.137 209.752 256.621C210.917 259.123 212.073 260.454 213.022 261.102C214.116 261.793 215.235 262.053 216.523 261.918C217.824 261.781 218.808 261.295 219.648 260.43L219.676 260.401ZM206.099 258.251C204.808 255.25 203.897 251.232 203.368 246.199C202.832 241.096 202.887 236.977 203.534 233.842C204.249 230.699 205.362 228.351 206.872 226.798C208.45 225.238 210.343 224.342 212.55 224.11C214.756 223.878 216.759 224.365 218.559 225.57C220.428 226.768 222.004 228.833 223.289 231.765C224.573 234.698 225.483 238.715 226.019 243.818C226.549 248.852 226.493 252.971 225.854 256.175C225.208 259.31 224.095 261.658 222.516 263.218C221.006 264.771 219.148 265.664 216.942 265.896C214.735 266.128 212.697 265.645 210.829 264.447C209.029 263.242 207.452 261.177 206.099 258.251ZM269.208 279.901L289.606 242.062C286.718 243.806 283.447 244.837 279.872 245.213C275.733 245.648 271.782 245.112 268.106 243.53C264.385 241.928 261.349 239.375 259.04 235.97L259.03 235.954L259.019 235.938C256.685 232.424 255.347 228.236 254.852 223.533C254.358 218.833 254.797 214.476 256.374 210.601C257.92 206.801 260.348 203.681 263.64 201.342C266.9 198.952 270.661 197.562 274.817 197.125C279.019 196.684 282.999 197.249 286.647 198.935C290.334 200.534 293.344 203.068 295.64 206.442C298.07 209.903 299.445 214.083 299.94 218.794C300.074 220.073 300.135 221.328 300.12 222.558L315.635 193.776L340.163 191.198L319.731 229.1C322.643 227.32 325.923 226.263 329.499 225.887C333.701 225.446 337.681 226.01 341.329 227.696C345.015 229.295 348.026 231.829 350.321 235.203C352.751 238.664 354.127 242.844 354.622 247.556C355.118 252.28 354.64 256.678 353.001 260.621C351.452 264.417 349.022 267.534 345.729 269.87C342.505 272.198 338.737 273.535 334.554 273.974C330.36 274.415 326.373 273.89 322.685 272.302L322.665 272.294L322.646 272.285C318.997 270.668 316.015 268.113 313.722 264.732L313.712 264.716L313.701 264.7C311.366 261.186 310.029 256.998 309.534 252.295C309.394 250.958 309.329 249.648 309.344 248.37L293.736 277.323L269.208 279.901ZM320.559 233.359C317.968 235.234 316.035 237.738 314.761 240.87C313.486 244.002 313.07 247.67 313.512 251.877C313.955 256.083 315.128 259.619 317.033 262.487C318.93 265.285 321.342 267.332 324.266 268.628C327.26 269.917 330.55 270.373 334.135 269.996C337.721 269.619 340.81 268.493 343.401 266.617C346.061 264.734 348.029 262.227 349.303 259.095C350.639 255.887 351.086 252.18 350.644 247.974C350.202 243.768 348.998 240.269 347.031 237.478C345.133 234.68 342.688 232.636 339.694 231.347C336.762 229.982 333.503 229.488 329.918 229.865C326.332 230.242 323.213 231.407 320.559 233.359ZM288.719 237.855C291.379 235.972 293.343 233.43 294.61 230.23C295.946 227.022 296.397 223.349 295.962 219.212C295.52 215.006 294.316 211.507 292.349 208.716C290.451 205.918 288.006 203.874 285.012 202.586C282.08 201.221 278.821 200.727 275.236 201.103C271.719 201.473 268.634 202.634 265.981 204.586C263.32 206.469 261.353 208.976 260.079 212.108C258.804 215.24 258.388 218.909 258.83 223.115C259.273 227.321 260.446 230.858 262.351 233.725C264.248 236.523 266.694 238.567 269.688 239.856C272.682 241.144 275.937 241.604 279.453 241.234C283.039 240.858 286.128 239.731 288.719 237.855ZM279.038 226.594L279.067 226.545C279.401 225.977 279.83 224.378 279.469 220.946C279.108 217.513 278.357 216.038 277.912 215.552L277.873 215.51L277.836 215.467C277.301 214.848 277.039 214.87 276.79 214.897C276.51 214.926 276.127 215.012 275.6 215.832C275.269 216.433 274.867 218.036 275.22 221.392C275.573 224.749 276.299 226.233 276.747 226.752C277.433 227.444 277.826 227.449 278.106 227.42C278.355 227.393 278.616 227.361 279.01 226.645L279.038 226.594ZM276.324 275.131L291.217 273.566L333.047 195.968L318.153 197.534L276.324 275.131ZM332.685 256.192C332.952 256.164 333.281 256.102 333.749 255.307C334.083 254.739 334.512 253.14 334.151 249.707C333.79 246.275 333.039 244.8 332.594 244.314C331.97 243.633 331.636 243.641 331.368 243.669L331.367 243.669C331.206 243.686 330.84 243.725 330.282 244.594C329.951 245.194 329.549 246.797 329.902 250.154C330.255 253.511 330.982 254.996 331.429 255.514C332.156 256.248 332.522 256.209 332.683 256.192L332.685 256.192ZM328.509 258.248C327.17 256.785 326.308 254.227 325.924 250.572C325.54 246.918 325.851 244.236 326.856 242.527C327.931 240.81 329.295 239.865 330.95 239.691C332.674 239.51 334.205 240.151 335.544 241.613C336.883 243.076 337.745 245.635 338.129 249.289C338.513 252.944 338.202 255.626 337.197 257.335C336.191 259.044 334.827 259.989 333.103 260.17C331.448 260.344 329.916 259.703 328.509 258.248ZM59.8964 275.709L90.098 272.535L88.5109 257.434L58.3092 260.608L59.8964 275.709ZM282.515 228.573C281.578 230.275 280.248 231.217 278.524 231.398C276.8 231.579 275.234 230.942 273.827 229.486C272.488 228.024 271.626 225.465 271.242 221.81C270.858 218.156 271.169 215.474 272.174 213.765C273.249 212.048 274.648 211.1 276.372 210.919C278.096 210.737 279.592 211.382 280.862 212.852C282.201 214.314 283.063 216.873 283.447 220.528C283.831 224.182 283.52 226.864 282.515 228.573Z" fill="#FF3C09"></path><path fill-rule="evenodd" clip-rule="evenodd" d="M434.307 240.379L431.884 217.322L470.042 213.311L472.465 236.368L434.307 240.379ZM486.763 246.175L486.732 246.143C483.11 242.29 481.037 237.56 480.466 232.133C479.902 226.762 480.968 221.812 483.824 217.506L483.829 217.499C484.646 216.273 485.566 215.128 486.583 214.061C486.32 213.827 486.062 213.588 485.809 213.343L485.792 213.327L485.776 213.312C482.269 209.84 480.278 205.471 479.747 200.418C479.208 195.288 480.168 190.529 482.775 186.337L482.789 186.314L482.804 186.291C485.392 182.253 489.112 179.046 493.77 176.602C498.464 174.066 503.886 172.526 509.947 171.889C516.063 171.246 521.694 171.62 526.761 173.139C531.817 174.56 536.097 176.929 539.407 180.363C542.902 183.909 544.877 188.368 545.418 193.516C545.948 198.566 544.911 203.252 542.204 207.376C541.995 207.697 541.778 208.011 541.553 208.32C542.744 209.145 543.854 210.066 544.877 211.086C548.629 214.689 550.743 219.306 551.308 224.687C551.879 230.114 550.834 235.172 548.092 239.694L548.082 239.71L548.071 239.727C545.359 244.102 541.352 247.563 536.278 250.191C531.245 252.827 525.352 254.443 518.697 255.143C512.038 255.843 505.934 255.486 500.46 253.952C495.018 252.427 490.405 249.879 486.795 246.207L486.763 246.175ZM534.431 246.643C538.993 244.282 542.406 241.274 544.672 237.62C546.929 233.896 547.816 229.725 547.33 225.105C546.852 220.554 545.101 216.834 542.079 213.945C541.125 212.99 540.069 212.129 538.911 211.361C537.766 210.603 536.521 209.936 535.176 209.361C536.275 208.412 537.242 207.389 538.078 206.291C538.352 205.93 538.612 205.562 538.857 205.186C541.021 201.891 541.882 198.14 541.44 193.934C540.983 189.59 539.35 185.997 536.542 183.155C533.802 180.306 530.17 178.247 525.645 176.98C521.181 175.637 516.088 175.266 510.365 175.867C504.711 176.462 499.806 177.883 495.65 180.133C491.487 182.313 488.328 185.085 486.171 188.449C484.084 191.806 483.269 195.656 483.725 200C484.168 204.206 485.789 207.696 488.59 210.469C488.908 210.776 489.235 211.073 489.574 211.36C490.632 212.256 491.794 213.054 493.06 213.754C491.867 214.592 490.784 215.501 489.811 216.479C488.811 217.485 487.926 218.564 487.157 219.717C484.87 223.165 483.966 227.164 484.444 231.715C484.93 236.335 486.664 240.231 489.647 243.403C492.691 246.499 496.655 248.731 501.54 250.1C506.424 251.469 512.004 251.824 518.279 251.165C524.554 250.505 529.938 248.998 534.431 246.643ZM518.288 191.557C520.081 192.693 521.108 194.502 521.368 196.985C521.601 199.198 521.082 201.056 519.81 202.558C519.735 202.646 519.657 202.734 519.577 202.82C518.128 204.297 516.094 205.173 513.474 205.448C510.923 205.717 508.785 205.279 507.062 204.135C506.961 204.065 506.862 203.992 506.766 203.918C505.218 202.714 504.328 201.008 504.096 198.8C503.835 196.318 504.428 194.338 505.877 192.862C507.325 191.385 509.325 190.512 511.876 190.244C514.427 189.976 516.565 190.414 518.288 191.557ZM516.685 200.055C516.045 200.69 514.974 201.269 513.056 201.47C511.234 201.662 510.091 201.33 509.315 200.83C508.67 200.365 508.212 199.696 508.074 198.382C507.909 196.816 508.293 196.11 508.733 195.662C509.385 194.997 510.439 194.417 512.294 194.222C514.149 194.027 515.3 194.375 516.077 194.89L516.112 194.913L516.147 194.936C516.719 195.298 517.232 195.896 517.39 197.403C517.528 198.717 517.219 199.466 516.685 200.055ZM507.173 222.11C505.409 223.899 504.672 226.173 504.962 228.931C505.259 231.758 506.456 233.863 508.554 235.246C510.72 236.622 513.458 237.136 516.768 236.788C520.078 236.44 522.614 235.372 524.378 233.583C526.211 231.787 526.979 229.475 526.682 226.648C526.392 223.89 525.164 221.823 522.998 220.447C522.689 220.234 522.368 220.041 522.034 219.867C520.087 218.853 517.701 218.494 514.876 218.791C512.058 219.087 509.777 219.933 508.035 221.33C507.731 221.573 507.444 221.833 507.173 222.11ZM510.727 231.888C511.931 232.641 513.69 233.089 516.35 232.81C519.04 232.527 520.601 231.716 521.53 230.774L521.554 230.75L521.579 230.726C522.438 229.884 522.889 228.828 522.704 227.066C522.53 225.41 521.897 224.486 520.853 223.824L520.789 223.783L520.726 223.74C519.619 222.976 517.946 222.49 515.294 222.769C512.65 223.047 511.044 223.874 510.031 224.908L510.026 224.914L510.021 224.919C509.192 225.76 508.76 226.805 508.94 228.513C509.129 230.308 509.784 231.256 510.727 231.888ZM577.919 243.82L577.908 243.814C572.096 240.988 567.351 236.565 563.653 230.713C559.901 224.772 557.666 217.495 556.778 209.054C555.891 200.612 556.564 193.029 559 186.438C561.4 179.945 565.122 174.632 570.219 170.66L570.229 170.652L570.239 170.644C575.396 166.678 581.473 164.372 588.341 163.65C595.144 162.935 601.504 163.936 607.306 166.755C613.186 169.569 617.972 173.988 621.676 179.851C625.429 185.792 627.664 193.068 628.551 201.51C629.438 209.952 628.765 217.534 626.329 224.125C623.925 230.63 620.162 235.947 614.996 239.923C609.907 243.886 603.895 246.188 597.091 246.903C590.223 247.625 583.799 246.632 577.931 243.825L577.919 243.82ZM612.548 236.76C617.063 233.288 620.406 228.614 622.577 222.739C624.748 216.864 625.414 209.927 624.573 201.928C623.732 193.929 621.639 187.283 618.294 181.987C614.949 176.692 610.707 172.815 605.569 170.358C600.499 167.893 594.896 166.983 588.759 167.628C582.553 168.28 577.193 170.342 572.678 173.815C568.232 177.28 564.923 181.95 562.752 187.825C560.581 193.7 559.916 200.637 560.756 208.635C561.597 216.634 563.69 223.281 567.035 228.576C570.38 233.872 574.588 237.752 579.657 240.217C584.795 242.675 590.468 243.577 596.673 242.925C602.81 242.28 608.102 240.225 612.548 236.76ZM597.647 220.675L597.675 220.647C598.494 219.838 599.351 218.333 599.905 215.653C600.432 212.999 600.519 209.329 600.012 204.51C599.496 199.601 598.646 196.042 597.595 193.643C596.494 191.13 595.342 189.833 594.371 189.211L594.338 189.189L594.304 189.167C593.302 188.496 592.239 188.225 590.938 188.362C589.65 188.497 588.609 188.984 587.684 189.888C586.889 190.72 586.033 192.265 585.414 194.962C584.892 197.525 584.804 201.171 585.317 206.054C585.821 210.85 586.663 214.41 587.723 216.895C588.888 219.397 590.044 220.728 590.993 221.375C592.086 222.066 593.205 222.327 594.494 222.191C595.795 222.054 596.778 221.568 597.619 220.704L597.647 220.675ZM584.07 218.525C582.778 215.523 581.868 211.506 581.339 206.472C580.803 201.37 580.858 197.251 581.504 194.115C582.22 190.973 583.332 188.625 584.842 187.072C586.421 185.511 588.314 184.615 590.52 184.383C592.727 184.152 594.73 184.638 596.53 185.843C598.399 187.041 599.975 189.106 601.259 192.039C602.544 194.971 603.454 198.989 603.99 204.091C604.519 209.125 604.464 213.244 603.825 216.448C603.178 219.584 602.066 221.932 600.487 223.492C598.977 225.045 597.119 225.937 594.912 226.169C592.706 226.401 590.668 225.918 588.799 224.72C586.999 223.515 585.423 221.45 584.07 218.525ZM647.179 240.175L667.577 202.335C664.689 204.08 661.417 205.11 657.842 205.486C653.704 205.921 649.753 205.386 646.077 203.803C642.355 202.201 639.32 199.648 637.011 196.243L637 196.228L636.99 196.212C634.655 192.698 633.317 188.51 632.823 183.806C632.329 179.107 632.767 174.75 634.344 170.874C635.89 167.075 638.319 163.954 641.61 161.616C644.871 159.225 648.631 157.836 652.788 157.399C656.989 156.957 660.97 157.522 664.618 159.208C668.304 160.807 671.315 163.341 673.61 166.715C676.04 170.177 677.416 174.356 677.911 179.068C678.045 180.346 678.106 181.602 678.09 182.832L693.605 154.05L718.134 151.472L697.702 189.374C700.614 187.594 703.893 186.537 707.47 186.161C711.671 185.719 715.651 186.284 719.299 187.97C722.986 189.569 725.996 192.103 728.292 195.476C730.722 198.938 732.097 203.117 732.593 207.829C733.089 212.553 732.611 216.951 730.971 220.894C729.423 224.69 726.993 227.808 723.7 230.144C720.476 232.472 716.708 233.808 712.524 234.248C708.331 234.688 704.344 234.164 700.655 232.576L700.636 232.567L700.617 232.559C696.968 230.942 693.986 228.386 691.693 225.005L691.682 224.989L691.672 224.974C689.337 221.46 687.999 217.272 687.505 212.568C687.365 211.231 687.299 209.922 687.315 208.643L671.707 237.597L647.179 240.175ZM698.53 193.632C695.939 195.508 694.006 198.012 692.731 201.143C691.457 204.275 691.041 207.944 691.483 212.15C691.925 216.356 693.099 219.893 695.004 222.76C696.901 225.559 699.312 227.606 702.237 228.902C705.231 230.191 708.521 230.646 712.106 230.27C715.692 229.893 718.78 228.766 721.372 226.891C724.032 225.008 725.999 222.5 727.274 219.368C728.61 216.161 729.057 212.454 728.615 208.247C728.173 204.041 726.968 200.543 725.002 197.752C723.104 194.953 720.658 192.91 717.665 191.621C714.733 190.256 711.474 189.762 707.888 190.139C704.303 190.516 701.183 191.68 698.53 193.632ZM666.69 198.129C669.35 196.246 671.314 193.704 672.581 190.503C673.917 187.295 674.367 183.623 673.933 179.486C673.491 175.279 672.286 171.781 670.32 168.99C668.422 166.191 665.977 164.148 662.983 162.859C660.051 161.494 656.792 161 653.206 161.377C649.69 161.747 646.605 162.907 643.952 164.859C641.291 166.742 639.324 169.25 638.049 172.382C636.775 175.513 636.359 179.182 636.801 183.388C637.243 187.594 638.417 191.131 640.322 193.998C642.219 196.797 644.665 198.84 647.659 200.129C650.652 201.418 653.908 201.877 657.424 201.508C661.01 201.131 664.098 200.005 666.69 198.129ZM657.009 186.868L657.038 186.818C657.372 186.251 657.8 184.652 657.44 181.219C657.079 177.787 656.327 176.312 655.883 175.826L655.844 175.784L655.806 175.74C655.272 175.122 655.009 175.144 654.761 175.17C654.48 175.199 654.097 175.286 653.57 176.106C653.24 176.706 652.838 178.309 653.191 181.666C653.544 185.022 654.27 186.507 654.718 187.025C655.404 187.718 655.797 187.722 656.077 187.693C656.326 187.667 656.587 187.634 656.981 186.918L657.009 186.868ZM654.294 235.405L669.188 233.839L711.018 156.242L696.124 157.807L654.294 235.405ZM710.655 216.466C710.923 216.438 711.252 216.376 711.72 215.58C712.054 215.012 712.482 213.413 712.121 209.981C711.761 206.548 711.009 205.074 710.565 204.588C709.941 203.907 709.607 203.915 709.339 203.943L709.338 203.943C709.176 203.96 708.81 203.998 708.252 204.867C707.922 205.467 707.52 207.07 707.873 210.427C708.226 213.784 708.952 215.269 709.4 215.787C710.126 216.521 710.493 216.483 710.654 216.466L710.655 216.466ZM706.479 218.521C705.14 217.059 704.279 214.5 703.895 210.846C703.511 207.191 703.821 204.509 704.827 202.8C705.901 201.084 707.266 200.138 708.921 199.965C710.645 199.783 712.176 200.424 713.515 201.887C714.854 203.35 715.715 205.908 716.1 209.563C716.484 213.217 716.173 215.899 715.167 217.608C714.162 219.317 712.797 220.263 711.073 220.444C709.419 220.618 707.887 219.977 706.479 218.521ZM437.867 235.983L468.069 232.808L466.482 217.708L436.28 220.882L437.867 235.983ZM660.485 188.847C659.549 190.548 658.219 191.49 656.495 191.671C654.771 191.852 653.205 191.215 651.797 189.76C650.458 188.297 649.597 185.738 649.213 182.084C648.829 178.429 649.139 175.747 650.145 174.038C651.219 172.322 652.619 171.373 654.342 171.192C656.066 171.011 657.563 171.655 658.833 173.125C660.172 174.588 661.033 177.146 661.418 180.801C661.802 184.456 661.491 187.137 660.485 188.847Z" fill="#FF3C09"></path><path fill-rule="evenodd" clip-rule="evenodd" d="M812.28 200.653L809.856 177.596L848.014 173.585L850.438 196.642L812.28 200.653ZM864.736 206.449L864.705 206.417C861.082 202.563 859.009 197.834 858.439 192.406C857.874 187.036 858.94 182.085 861.797 177.78L861.802 177.773C862.618 176.547 863.538 175.401 864.556 174.334C864.293 174.101 864.034 173.862 863.781 173.617L863.765 173.601L863.749 173.585C860.242 170.113 858.251 165.744 857.72 160.692C857.181 155.562 858.141 150.802 860.747 146.611L860.762 146.587L860.777 146.564C863.365 142.527 867.085 139.32 871.743 136.876C876.437 134.34 881.858 132.8 887.919 132.163C894.036 131.52 899.666 131.894 904.733 133.412C909.789 134.834 914.07 137.202 917.379 140.637C920.875 144.183 922.849 148.642 923.39 153.79C923.921 158.84 922.883 163.526 920.177 167.65C919.968 167.97 919.751 168.285 919.526 168.594C920.717 169.418 921.827 170.339 922.849 171.36C926.602 174.962 928.715 179.579 929.281 184.961C929.851 190.388 928.807 195.445 926.064 199.967L926.054 199.984L926.044 200.001C923.332 204.376 919.325 207.837 914.251 210.465C909.218 213.101 903.325 214.717 896.67 215.416C890.01 216.116 883.907 215.76 878.433 214.226C872.991 212.7 868.378 210.153 864.767 206.481L864.736 206.449ZM912.403 206.917C916.966 204.555 920.379 201.547 922.644 197.893C924.902 194.17 925.788 189.999 925.303 185.379C924.824 180.828 923.074 177.108 920.051 174.219C919.098 173.263 918.042 172.402 916.884 171.635C915.739 170.876 914.493 170.209 913.148 169.634C914.247 168.686 915.215 167.662 916.05 166.564C916.324 166.204 916.584 165.836 916.83 165.459C918.994 162.164 919.854 158.414 919.412 154.208C918.956 149.864 917.323 146.271 914.515 143.429C911.775 140.579 908.143 138.521 903.617 137.254C899.154 135.91 894.061 135.539 888.337 136.141C882.683 136.735 877.778 138.157 873.623 140.406C869.46 142.587 866.3 145.359 864.144 148.723C862.057 152.079 861.241 155.93 861.698 160.274C862.14 164.48 863.762 167.97 866.563 170.743C866.88 171.05 867.208 171.346 867.546 171.633C868.605 172.53 869.767 173.328 871.033 174.027C869.84 174.866 868.757 175.774 867.784 176.752C866.783 177.758 865.899 178.838 865.13 179.991C862.843 183.438 861.939 187.437 862.417 191.988C862.903 196.608 864.637 200.504 867.619 203.677C870.664 206.773 874.628 209.005 879.513 210.374C884.397 211.743 889.977 212.098 896.252 211.438C902.526 210.779 907.91 209.272 912.403 206.917ZM896.261 151.831C898.053 152.967 899.08 154.776 899.341 157.258C899.574 159.472 899.054 161.33 897.783 162.831C897.707 162.92 897.63 163.007 897.549 163.094C896.101 164.571 894.067 165.447 891.447 165.722C888.895 165.99 886.758 165.553 885.034 164.409C884.933 164.338 884.835 164.266 884.739 164.191C883.191 162.987 882.3 161.282 882.068 159.074C881.807 156.592 882.401 154.612 883.849 153.135C885.297 151.658 887.297 150.786 889.849 150.518C892.4 150.25 894.537 150.687 896.261 151.831ZM894.658 160.329C894.017 160.963 892.946 161.542 891.028 161.744C889.207 161.935 888.064 161.603 887.288 161.104C886.643 160.638 886.184 159.97 886.046 158.656C885.882 157.09 886.266 156.384 886.705 155.936C887.358 155.271 888.411 154.691 890.267 154.496C892.122 154.301 893.273 154.649 894.05 155.164L894.084 155.187L894.119 155.209C894.692 155.572 895.205 156.17 895.363 157.677C895.501 158.991 895.192 159.74 894.658 160.329ZM885.146 182.384C883.382 184.173 882.645 186.446 882.934 189.204C883.232 192.032 884.429 194.137 886.526 195.52C888.693 196.895 891.431 197.409 894.74 197.061C898.05 196.714 900.587 195.645 902.351 193.856C904.184 192.06 904.952 189.749 904.655 186.922C904.365 184.163 903.137 182.096 900.97 180.721C900.662 180.508 900.341 180.314 900.006 180.14C898.059 179.126 895.674 178.768 892.849 179.065C890.03 179.361 887.75 180.207 886.008 181.604C885.704 181.847 885.417 182.107 885.146 182.384ZM888.7 192.162C889.903 192.915 891.663 193.363 894.322 193.083C897.012 192.801 898.574 191.99 899.503 191.048L899.527 191.023L899.552 190.999C900.411 190.158 900.862 189.102 900.677 187.34C900.503 185.683 899.87 184.76 898.826 184.097L898.762 184.056L898.699 184.013C897.592 183.25 895.919 182.764 893.267 183.043C890.623 183.321 889.016 184.148 888.004 185.182L887.999 185.187L887.994 185.193C887.165 186.033 886.733 187.078 886.913 188.786C887.101 190.581 887.756 191.529 888.7 192.162ZM955.892 204.093L955.881 204.088C950.069 201.262 945.323 196.839 941.626 190.986C937.873 185.046 935.638 177.769 934.751 169.327C933.864 160.886 934.537 153.303 936.973 146.712C939.372 140.219 943.094 134.906 948.192 130.933L948.202 130.925L948.212 130.917C953.368 126.952 959.446 124.645 966.314 123.923C973.117 123.208 979.477 124.21 985.279 127.028C991.158 129.843 995.945 134.262 999.648 140.125C1003.4 146.065 1005.64 153.342 1006.52 161.784C1007.41 170.225 1006.74 177.808 1004.3 184.399C1001.9 190.904 998.135 196.221 992.969 200.197C987.88 204.16 981.867 206.462 975.064 207.177C968.196 207.899 961.772 206.906 955.904 204.099L955.892 204.093ZM990.521 197.034C995.036 193.561 998.379 188.888 1000.55 183.012C1002.72 177.137 1003.39 170.2 1002.55 162.202C1001.7 154.203 999.612 147.556 996.267 142.261C992.922 136.965 988.68 133.089 983.541 130.631C978.472 128.166 972.869 127.256 966.732 127.901C960.526 128.554 955.166 130.616 950.651 134.088C946.204 137.553 942.896 142.223 940.725 148.099C938.554 153.974 937.888 160.911 938.729 168.909C939.57 176.908 941.663 183.555 945.008 188.85C948.353 194.145 952.56 198.026 957.63 200.49C962.768 202.948 968.44 203.851 974.646 203.199C980.783 202.554 986.074 200.499 990.521 197.034ZM975.62 180.949L975.648 180.92C976.467 180.111 977.323 178.607 977.877 175.927C978.405 173.273 978.491 169.603 977.985 164.783C977.469 159.875 976.618 156.316 975.568 153.917C974.467 151.403 973.314 150.107 972.344 149.485L972.31 149.463L972.277 149.441C971.275 148.77 970.212 148.499 968.911 148.635C967.622 148.771 966.582 149.258 965.656 150.161C964.861 150.993 964.005 152.539 963.386 155.236C962.865 157.798 962.776 161.444 963.29 166.328C963.794 171.123 964.636 174.684 965.696 177.168C966.86 179.67 968.017 181.001 968.966 181.649C970.059 182.34 971.178 182.6 972.467 182.465C973.767 182.328 974.751 181.842 975.592 180.977L975.62 180.949ZM962.042 178.798C960.751 175.797 959.841 171.779 959.312 166.746C958.775 161.643 958.83 157.524 959.477 154.389C960.192 151.246 961.305 148.898 962.815 147.345C964.394 145.785 966.287 144.889 968.493 144.657C970.7 144.425 972.703 144.912 974.503 146.117C976.371 147.315 977.948 149.38 979.232 152.313C980.516 155.245 981.427 159.263 981.963 164.365C982.492 169.399 982.437 173.518 981.798 176.722C981.151 179.857 980.038 182.205 978.46 183.766C976.95 185.319 975.091 186.211 972.885 186.443C970.678 186.675 968.641 186.192 966.772 184.994C964.972 183.789 963.396 181.724 962.042 178.798ZM1025.15 200.448L1045.55 162.609C1042.66 164.354 1039.39 165.384 1035.81 165.76C1031.68 166.195 1027.73 165.659 1024.05 164.077C1020.33 162.475 1017.29 159.922 1014.98 156.517L1014.97 156.501L1014.96 156.486C1012.63 152.971 1011.29 148.783 1010.8 144.08C1010.3 139.381 1010.74 135.023 1012.32 131.148C1013.86 127.349 1016.29 124.228 1019.58 121.89C1022.84 119.499 1026.6 118.109 1030.76 117.673C1034.96 117.231 1038.94 117.796 1042.59 119.482C1046.28 121.081 1049.29 123.615 1051.58 126.989C1054.01 130.451 1055.39 134.63 1055.88 139.341C1056.02 140.62 1056.08 141.875 1056.06 143.105L1071.58 114.324L1096.11 111.746L1075.67 149.647C1078.59 147.867 1081.87 146.81 1085.44 146.434C1089.64 145.993 1093.62 146.558 1097.27 148.243C1100.96 149.842 1103.97 152.376 1106.26 155.75C1108.69 159.212 1110.07 163.391 1110.57 168.103C1111.06 172.827 1110.58 177.225 1108.94 181.168C1107.4 184.964 1104.97 188.081 1101.67 190.417C1098.45 192.746 1094.68 194.082 1090.5 194.521C1086.3 194.962 1082.32 194.437 1078.63 192.849L1078.61 192.841L1078.59 192.832C1074.94 191.216 1071.96 188.66 1069.67 185.279L1069.65 185.263L1069.64 185.247C1067.31 181.733 1065.97 177.545 1065.48 172.842C1065.34 171.505 1065.27 170.195 1065.29 168.917L1049.68 197.87L1025.15 200.448ZM1076.5 153.906C1073.91 155.782 1071.98 158.285 1070.7 161.417C1069.43 164.549 1069.01 168.218 1069.46 172.424C1069.9 176.63 1071.07 180.167 1072.98 183.034C1074.87 185.832 1077.28 187.879 1080.21 189.175C1083.2 190.464 1086.49 190.92 1090.08 190.543C1093.66 190.166 1096.75 189.04 1099.34 187.164C1102 185.281 1103.97 182.774 1105.25 179.642C1106.58 176.434 1107.03 172.727 1106.59 168.521C1106.15 164.315 1104.94 160.816 1102.97 158.025C1101.08 155.227 1098.63 153.183 1095.64 151.895C1092.71 150.53 1089.45 150.035 1085.86 150.412C1082.28 150.789 1079.16 151.954 1076.5 153.906ZM1044.66 158.403C1047.32 156.519 1049.29 153.978 1050.55 150.777C1051.89 147.569 1052.34 143.897 1051.91 139.759C1051.46 135.553 1050.26 132.055 1048.29 129.263C1046.39 126.465 1043.95 124.422 1040.96 123.133C1038.02 121.768 1034.76 121.274 1031.18 121.651C1027.66 122.02 1024.58 123.181 1021.92 125.133C1019.26 127.016 1017.3 129.524 1016.02 132.655C1014.75 135.787 1014.33 139.456 1014.77 143.662C1015.22 147.868 1016.39 151.405 1018.29 154.272C1020.19 157.07 1022.64 159.114 1025.63 160.403C1028.62 161.692 1031.88 162.151 1035.4 161.782C1038.98 161.405 1042.07 160.278 1044.66 158.403ZM1034.98 147.141L1035.01 147.092C1035.34 146.524 1035.77 144.925 1035.41 141.493C1035.05 138.06 1034.3 136.585 1033.86 136.1L1033.82 136.057L1033.78 136.014C1033.24 135.395 1032.98 135.418 1032.73 135.444C1032.45 135.473 1032.07 135.56 1031.54 136.38C1031.21 136.98 1030.81 138.583 1031.16 141.939C1031.52 145.296 1032.24 146.78 1032.69 147.299C1033.38 147.991 1033.77 147.996 1034.05 147.967C1034.3 147.941 1034.56 147.908 1034.95 147.192L1034.98 147.141ZM1032.27 195.678L1047.16 194.113L1088.99 116.515L1074.1 118.081L1032.27 195.678ZM1088.63 176.739C1088.9 176.711 1089.22 176.649 1089.69 175.854C1090.03 175.286 1090.45 173.687 1090.09 170.255C1089.73 166.822 1088.98 165.347 1088.54 164.861C1087.91 164.18 1087.58 164.188 1087.31 164.216L1087.31 164.216C1087.15 164.233 1086.78 164.272 1086.23 165.141C1085.89 165.741 1085.49 167.344 1085.85 170.701C1086.2 174.058 1086.92 175.543 1087.37 176.061C1088.1 176.795 1088.47 176.756 1088.63 176.739L1088.63 176.739ZM1084.45 178.795C1083.11 177.332 1082.25 174.774 1081.87 171.119C1081.48 167.465 1081.79 164.783 1082.8 163.074C1083.87 161.357 1085.24 160.412 1086.89 160.238C1088.62 160.057 1090.15 160.698 1091.49 162.161C1092.83 163.623 1093.69 166.182 1094.07 169.836C1094.46 173.491 1094.15 176.173 1093.14 177.882C1092.13 179.591 1090.77 180.536 1089.05 180.717C1087.39 180.891 1085.86 180.251 1084.45 178.795ZM815.84 196.256L846.041 193.082L844.454 177.981L814.253 181.156L815.84 196.256ZM1038.46 149.12C1037.52 150.822 1036.19 151.764 1034.47 151.945C1032.74 152.126 1031.18 151.489 1029.77 150.033C1028.43 148.571 1027.57 146.012 1027.19 142.357C1026.8 138.703 1027.11 136.021 1028.12 134.312C1029.19 132.596 1030.59 131.647 1032.32 131.466C1034.04 131.284 1035.54 131.929 1036.81 133.399C1038.14 134.862 1039.01 137.42 1039.39 141.075C1039.77 144.729 1039.46 147.411 1038.46 149.12Z" fill="#FF3C09"></path><path fill-rule="evenodd" clip-rule="evenodd" d="M1190.25 160.926L1187.83 137.869L1225.99 133.858L1228.41 156.915L1190.25 160.926ZM1242.71 166.723L1242.68 166.69C1239.06 162.837 1236.98 158.107 1236.41 152.68C1235.85 147.309 1236.91 142.359 1239.77 138.053L1239.77 138.046C1240.59 136.82 1241.51 135.675 1242.53 134.608C1242.27 134.374 1242.01 134.135 1241.75 133.89L1241.74 133.875L1241.72 133.859C1238.21 130.387 1236.22 126.018 1235.69 120.965C1235.15 115.835 1236.11 111.076 1238.72 106.884L1238.73 106.861L1238.75 106.838C1241.34 102.8 1245.06 99.5932 1249.72 97.1491C1254.41 94.6132 1259.83 93.0734 1265.89 92.4363C1272.01 91.7935 1277.64 92.1673 1282.71 93.6859C1287.76 95.1075 1292.04 97.4759 1295.35 100.91C1298.85 104.456 1300.82 108.915 1301.36 114.063C1301.89 119.114 1300.86 123.799 1298.15 127.923C1297.94 128.244 1297.72 128.558 1297.5 128.867C1298.69 129.692 1299.8 130.613 1300.82 131.633C1304.57 135.236 1306.69 139.853 1307.25 145.234C1307.82 150.661 1306.78 155.719 1304.04 160.241L1304.03 160.258L1304.02 160.274C1301.3 164.649 1297.3 168.11 1292.22 170.738C1287.19 173.374 1281.3 174.99 1274.64 175.69C1267.98 176.39 1261.88 176.033 1256.41 174.499C1250.96 172.974 1246.35 170.427 1242.74 166.755L1242.71 166.723ZM1290.38 167.191C1294.94 164.829 1298.35 161.821 1300.62 158.167C1302.87 154.444 1303.76 150.272 1303.28 145.652C1302.8 141.101 1301.05 137.381 1298.02 134.492C1297.07 133.537 1296.01 132.676 1294.86 131.908C1293.71 131.15 1292.47 130.483 1291.12 129.908C1292.22 128.959 1293.19 127.936 1294.02 126.838C1294.3 126.477 1294.56 126.109 1294.8 125.733C1296.97 122.438 1297.83 118.687 1297.38 114.481C1296.93 110.137 1295.3 106.544 1292.49 103.702C1289.75 100.853 1286.12 98.7946 1281.59 97.5273C1277.13 96.1839 1272.03 95.8129 1266.31 96.4144C1260.66 97.0087 1255.75 98.4305 1251.6 100.68C1247.43 102.86 1244.27 105.632 1242.12 108.996C1240.03 112.353 1239.21 116.203 1239.67 120.547C1240.11 124.753 1241.73 128.243 1244.54 131.016C1244.85 131.323 1245.18 131.62 1245.52 131.907C1246.58 132.803 1247.74 133.601 1249.01 134.301C1247.81 135.139 1246.73 136.048 1245.76 137.026C1244.76 138.032 1243.87 139.111 1243.1 140.264C1240.82 143.712 1239.91 147.711 1240.39 152.262C1240.88 156.882 1242.61 160.778 1245.59 163.95C1248.64 167.046 1252.6 169.279 1257.49 170.648C1262.37 172.016 1267.95 172.371 1274.22 171.712C1280.5 171.052 1285.88 169.545 1290.38 167.191ZM1274.23 112.104C1276.03 113.24 1277.05 115.05 1277.31 117.532C1277.55 119.746 1277.03 121.603 1275.76 123.105C1275.68 123.193 1275.6 123.281 1275.52 123.367C1274.07 124.844 1272.04 125.72 1269.42 125.995C1266.87 126.264 1264.73 125.826 1263.01 124.683C1262.91 124.612 1262.81 124.539 1262.71 124.465C1261.16 123.261 1260.27 121.555 1260.04 119.347C1259.78 116.865 1260.37 114.885 1261.82 113.409C1263.27 111.932 1265.27 111.059 1267.82 110.791C1270.37 110.523 1272.51 110.961 1274.23 112.104ZM1272.63 120.602C1271.99 121.237 1270.92 121.816 1269 122.017C1267.18 122.209 1266.04 121.877 1265.26 121.377C1264.62 120.912 1264.16 120.244 1264.02 118.929C1263.85 117.363 1264.24 116.657 1264.68 116.209C1265.33 115.544 1266.38 114.964 1268.24 114.769C1270.09 114.574 1271.25 114.922 1272.02 115.437L1272.06 115.46L1272.09 115.483C1272.66 115.845 1273.18 116.444 1273.34 117.95C1273.47 119.264 1273.16 120.013 1272.63 120.602ZM1263.12 142.657C1261.35 144.446 1260.62 146.72 1260.91 149.478C1261.2 152.305 1262.4 154.41 1264.5 155.793C1266.67 157.169 1269.4 157.683 1272.71 157.335C1276.02 156.987 1278.56 155.919 1280.32 154.13C1282.16 152.334 1282.92 150.022 1282.63 147.195C1282.34 144.437 1281.11 142.37 1278.94 140.994C1278.63 140.781 1278.31 140.588 1277.98 140.414C1276.03 139.4 1273.65 139.041 1270.82 139.338C1268 139.634 1265.72 140.481 1263.98 141.877C1263.68 142.12 1263.39 142.381 1263.12 142.657ZM1266.67 152.435C1267.88 153.188 1269.64 153.636 1272.29 153.357C1274.98 153.074 1276.55 152.263 1277.48 151.321L1277.5 151.297L1277.52 151.273C1278.38 150.431 1278.83 149.375 1278.65 147.613C1278.48 145.957 1277.84 145.034 1276.8 144.371L1276.73 144.33L1276.67 144.287C1275.56 143.523 1273.89 143.037 1271.24 143.316C1268.6 143.594 1266.99 144.421 1265.98 145.456L1265.97 145.461L1265.97 145.466C1265.14 146.307 1264.71 147.352 1264.89 149.06C1265.07 150.855 1265.73 151.803 1266.67 152.435ZM1333.86 164.367L1333.85 164.361C1328.04 161.535 1323.3 157.112 1319.6 151.26C1315.85 145.319 1313.61 138.042 1312.72 129.601C1311.84 121.159 1312.51 113.577 1314.95 106.985C1317.34 100.492 1321.07 95.1792 1326.16 91.2067L1326.17 91.1988L1326.18 91.1909C1331.34 87.2255 1337.42 84.9186 1344.29 84.1968C1351.09 83.4817 1357.45 84.4834 1363.25 87.3016C1369.13 90.1166 1373.92 94.5352 1377.62 100.398C1381.37 106.339 1383.61 113.615 1384.5 122.057C1385.38 130.499 1384.71 138.081 1382.27 144.672C1379.87 151.177 1376.11 156.494 1370.94 160.47C1365.85 164.433 1359.84 166.735 1353.04 167.45C1346.17 168.172 1339.74 167.179 1333.88 164.372L1333.86 164.367ZM1368.49 157.307C1373.01 153.835 1376.35 149.161 1378.52 143.286C1380.69 137.411 1381.36 130.474 1380.52 122.475C1379.68 114.477 1377.58 107.83 1374.24 102.534C1370.89 97.2389 1366.65 93.3624 1361.51 90.9047C1356.44 88.4398 1350.84 87.5298 1344.7 88.1748C1338.5 88.8271 1333.14 90.8894 1328.62 94.3617C1324.18 97.8268 1320.87 102.497 1318.7 108.372C1316.53 114.247 1315.86 121.184 1316.7 129.183C1317.54 137.181 1319.64 143.828 1322.98 149.124C1326.33 154.419 1330.53 158.299 1335.6 160.764C1340.74 163.222 1346.41 164.124 1352.62 163.472C1358.76 162.827 1364.05 160.772 1368.49 157.307ZM1353.59 141.222L1353.62 141.194C1354.44 140.385 1355.3 138.88 1355.85 136.2C1356.38 133.546 1356.46 129.876 1355.96 125.057C1355.44 120.148 1354.59 116.589 1353.54 114.191C1352.44 111.677 1351.29 110.38 1350.32 109.758L1350.28 109.736L1350.25 109.714C1349.25 109.043 1348.18 108.772 1346.88 108.909C1345.59 109.044 1344.55 109.531 1343.63 110.435C1342.83 111.267 1341.98 112.812 1341.36 115.509C1340.84 118.072 1340.75 121.718 1341.26 126.601C1341.77 131.397 1342.61 134.957 1343.67 137.442C1344.83 139.944 1345.99 141.275 1346.94 141.922C1348.03 142.613 1349.15 142.874 1350.44 142.738C1351.74 142.602 1352.72 142.115 1353.56 141.251L1353.59 141.222ZM1340.02 139.072C1338.72 136.07 1337.81 132.053 1337.28 127.019C1336.75 121.917 1336.8 117.798 1337.45 114.662C1338.16 111.52 1339.28 109.172 1340.79 107.619C1342.37 106.059 1344.26 105.162 1346.47 104.931C1348.67 104.699 1350.68 105.185 1352.48 106.39C1354.34 107.588 1355.92 109.653 1357.2 112.586C1358.49 115.518 1359.4 119.536 1359.94 124.639C1360.46 129.672 1360.41 133.791 1359.77 136.995C1359.12 140.131 1358.01 142.479 1356.43 144.039C1354.92 145.592 1353.06 146.484 1350.86 146.716C1348.65 146.948 1346.61 146.465 1344.74 145.267C1342.94 144.062 1341.37 141.997 1340.02 139.072ZM1403.12 160.722L1423.52 122.882C1420.63 124.627 1417.36 125.657 1413.79 126.033C1409.65 126.468 1405.7 125.933 1402.02 124.35C1398.3 122.748 1395.27 120.196 1392.96 116.791L1392.95 116.775L1392.94 116.759C1390.6 113.245 1389.26 109.057 1388.77 104.354C1388.27 99.654 1388.71 95.2967 1390.29 91.4211C1391.84 87.622 1394.26 84.5016 1397.56 82.163C1400.82 79.7724 1404.58 78.3829 1408.73 77.946C1412.93 77.5044 1416.92 78.0693 1420.56 79.7554C1424.25 81.3543 1427.26 83.8885 1429.56 87.2625C1431.99 90.724 1433.36 94.9032 1433.86 99.6146C1433.99 100.893 1434.05 102.149 1434.04 103.379L1449.55 74.597L1474.08 72.019L1453.65 109.921C1456.56 108.141 1459.84 107.084 1463.42 106.708C1467.62 106.266 1471.6 106.831 1475.24 108.517C1478.93 110.116 1481.94 112.65 1484.24 116.023C1486.67 119.485 1488.04 123.665 1488.54 128.376C1489.03 133.1 1488.56 137.498 1486.92 141.442C1485.37 145.237 1482.94 148.355 1479.64 150.691C1476.42 153.019 1472.65 154.355 1468.47 154.795C1464.28 155.236 1460.29 154.711 1456.6 153.123L1456.58 153.114L1456.56 153.106C1452.91 151.489 1449.93 148.933 1447.64 145.552L1447.63 145.537L1447.62 145.521C1445.28 142.007 1443.94 137.819 1443.45 133.115C1443.31 131.778 1443.24 130.469 1443.26 129.19L1427.65 158.144L1403.12 160.722ZM1454.48 114.179C1451.88 116.055 1449.95 118.559 1448.68 121.69C1447.4 124.822 1446.99 128.491 1447.43 132.697C1447.87 136.903 1449.04 140.44 1450.95 143.307C1452.85 146.106 1455.26 148.153 1458.18 149.449C1461.18 150.738 1464.47 151.194 1468.05 150.817C1471.64 150.44 1474.73 149.314 1477.32 147.438C1479.98 145.555 1481.94 143.047 1483.22 139.916C1484.56 136.708 1485 133.001 1484.56 128.794C1484.12 124.588 1482.91 121.09 1480.95 118.299C1479.05 115.5 1476.6 113.457 1473.61 112.168C1470.68 110.803 1467.42 110.309 1463.83 110.686C1460.25 111.063 1457.13 112.227 1454.48 114.179ZM1422.64 118.676C1425.3 116.793 1427.26 114.251 1428.53 111.05C1429.86 107.843 1430.31 104.17 1429.88 100.033C1429.44 95.8266 1428.23 92.328 1426.27 89.5369C1424.37 86.7386 1421.92 84.695 1418.93 83.4063C1416 82.0413 1412.74 81.5472 1409.15 81.9241C1405.63 82.2937 1402.55 83.4545 1399.9 85.4065C1397.24 87.2896 1395.27 89.797 1393.99 92.9287C1392.72 96.0603 1392.3 99.7293 1392.75 103.935C1393.19 108.142 1394.36 111.678 1396.27 114.546C1398.16 117.344 1400.61 119.387 1403.6 120.676C1406.6 121.965 1409.85 122.425 1413.37 122.055C1416.96 121.678 1420.04 120.552 1422.64 118.676ZM1412.95 107.415L1412.98 107.365C1413.32 106.798 1413.75 105.199 1413.38 101.766C1413.02 98.3338 1412.27 96.8589 1411.83 96.373L1411.79 96.3307L1411.75 96.2872C1411.22 95.6689 1410.95 95.691 1410.71 95.7171C1410.43 95.7466 1410.04 95.833 1409.52 96.653C1409.19 97.2532 1408.78 98.8566 1409.14 102.213C1409.49 105.569 1410.22 107.054 1410.66 107.572C1411.35 108.265 1411.74 108.27 1412.02 108.24C1412.27 108.214 1412.53 108.181 1412.93 107.465L1412.95 107.415ZM1410.24 155.952L1425.13 154.386L1466.96 76.7889L1452.07 78.3544L1410.24 155.952ZM1466.6 137.013C1466.87 136.985 1467.2 136.923 1467.67 136.127C1468 135.559 1468.43 133.96 1468.07 130.528C1467.71 127.096 1466.95 125.621 1466.51 125.135C1465.89 124.454 1465.55 124.462 1465.28 124.49L1465.28 124.49C1465.12 124.507 1464.76 124.545 1464.2 125.414C1463.87 126.014 1463.47 127.618 1463.82 130.975C1464.17 134.332 1464.9 135.816 1465.35 136.334C1466.07 137.068 1466.44 137.03 1466.6 137.013L1466.6 137.013ZM1462.42 139.069C1461.09 137.606 1460.22 135.047 1459.84 131.393C1459.46 127.738 1459.77 125.056 1460.77 123.347C1461.85 121.631 1463.21 120.686 1464.87 120.512C1466.59 120.33 1468.12 120.971 1469.46 122.434C1470.8 123.897 1471.66 126.455 1472.04 130.11C1472.43 133.764 1472.12 136.446 1471.11 138.155C1470.11 139.865 1468.74 140.81 1467.02 140.991C1465.36 141.165 1463.83 140.524 1462.42 139.069ZM1193.81 156.53L1224.01 153.356L1222.43 138.255L1192.23 141.429L1193.81 156.53ZM1416.43 109.394C1415.49 111.096 1414.16 112.037 1412.44 112.218C1410.72 112.399 1409.15 111.762 1407.74 110.307C1406.4 108.844 1405.54 106.285 1405.16 102.631C1404.77 98.9764 1405.08 96.2945 1406.09 94.5854C1407.16 92.869 1408.56 91.9202 1410.29 91.7391C1412.01 91.5579 1413.51 92.2023 1414.78 93.6722C1416.12 95.135 1416.98 97.6936 1417.36 101.348C1417.75 105.003 1417.44 107.685 1416.43 109.394Z" fill="#FF3C09"></path><path fill-rule="evenodd" clip-rule="evenodd" d="M1568.22 121.2L1565.8 98.1427L1603.96 94.1322L1606.38 117.189L1568.22 121.2ZM1620.68 126.996L1620.65 126.964C1617.03 123.111 1614.95 118.381 1614.38 112.954C1613.82 107.583 1614.88 102.633 1617.74 98.327L1617.74 98.3196C1618.56 97.094 1619.48 95.9486 1620.5 94.8813C1620.24 94.6481 1619.98 94.409 1619.72 94.164L1619.71 94.1483L1619.69 94.1324C1616.19 90.6605 1614.19 86.2915 1613.66 81.239C1613.12 76.1087 1614.08 71.3496 1616.69 67.1577L1616.71 67.1344L1616.72 67.1113C1619.31 63.0738 1623.03 59.8669 1627.69 57.4228C1632.38 54.8869 1637.8 53.3471 1643.86 52.71C1649.98 52.0672 1655.61 52.441 1660.68 53.9596C1665.73 55.3812 1670.01 57.7496 1673.32 61.1839C1676.82 64.7301 1678.79 69.1887 1679.33 74.3368C1679.86 79.3873 1678.83 84.0731 1676.12 88.1971C1675.91 88.5173 1675.69 88.8318 1675.47 89.1406C1676.66 89.9656 1677.77 90.8865 1678.79 91.9068C1682.55 95.5093 1684.66 100.126 1685.22 105.508C1685.79 110.935 1684.75 115.992 1682.01 120.515L1682 120.531L1681.99 120.548C1679.28 124.923 1675.27 128.384 1670.19 131.012C1665.16 133.648 1659.27 135.264 1652.61 135.963C1645.95 136.663 1639.85 136.307 1634.38 134.773C1628.93 133.247 1624.32 130.7 1620.71 127.028L1620.68 126.996ZM1668.35 127.464C1672.91 125.102 1676.32 122.094 1678.59 118.44C1680.85 114.717 1681.73 110.546 1681.25 105.926C1680.77 101.375 1679.02 97.6549 1675.99 94.7657C1675.04 93.8106 1673.99 92.9494 1672.83 92.1821C1671.68 91.4234 1670.44 90.7565 1669.09 90.1814C1670.19 89.2328 1671.16 88.2095 1671.99 87.1114C1672.27 86.7511 1672.53 86.3828 1672.77 86.0064C1674.94 82.7116 1675.8 78.9611 1675.36 74.7549C1674.9 70.4108 1673.27 66.8178 1670.46 63.9758C1667.72 61.1265 1664.09 59.0683 1659.56 57.801C1655.1 56.4576 1650 56.0866 1644.28 56.6881C1638.63 57.2824 1633.72 58.7042 1629.57 60.9536C1625.4 63.134 1622.24 65.9061 1620.09 69.2699C1618 72.6265 1617.18 76.4768 1617.64 80.8209C1618.08 85.0271 1619.71 88.5167 1622.51 91.2897C1622.82 91.5967 1623.15 91.8936 1623.49 92.1803C1624.55 93.0771 1625.71 93.8751 1626.98 94.5743C1625.78 95.4131 1624.7 96.3215 1623.73 97.2996C1622.73 98.3054 1621.84 99.385 1621.07 100.538C1618.79 103.985 1617.88 107.985 1618.36 112.535C1618.85 117.155 1620.58 121.051 1623.56 124.224C1626.61 127.32 1630.57 129.552 1635.46 130.921C1640.34 132.29 1645.92 132.645 1652.19 131.985C1658.47 131.326 1663.85 129.819 1668.35 127.464ZM1652.2 72.3778C1654 73.514 1655.02 75.3233 1655.28 77.8056C1655.52 80.0192 1655 81.8768 1653.73 83.3784C1653.65 83.4671 1653.57 83.5546 1653.49 83.6409C1652.04 85.1177 1650.01 85.9938 1647.39 86.2692C1644.84 86.5373 1642.7 86.0997 1640.98 84.9563C1640.88 84.8856 1640.78 84.8129 1640.68 84.7384C1639.13 83.5345 1638.24 81.8288 1638.01 79.6211C1637.75 77.1387 1638.34 75.1592 1639.79 73.6824C1641.24 72.2055 1643.24 71.3331 1645.79 71.0649C1648.34 70.7968 1650.48 71.2344 1652.2 72.3778ZM1650.6 80.8761C1649.96 81.5105 1648.89 82.0895 1646.97 82.2911C1645.15 82.4826 1644.01 82.1506 1643.23 81.6509C1642.59 81.1854 1642.13 80.5172 1641.99 79.2029C1641.83 77.6367 1642.21 76.9311 1642.65 76.483C1643.3 75.8177 1644.35 75.238 1646.21 75.043C1648.07 74.848 1649.22 75.1959 1649.99 75.7111L1650.03 75.7341L1650.06 75.7564C1650.64 76.1192 1651.15 76.7172 1651.31 78.2237C1651.44 79.5378 1651.13 80.2867 1650.6 80.8761ZM1641.09 102.931C1639.33 104.72 1638.59 106.993 1638.88 109.752C1639.17 112.579 1640.37 114.684 1642.47 116.067C1644.64 117.442 1647.37 117.956 1650.68 117.609C1653.99 117.261 1656.53 116.192 1658.29 114.403C1660.13 112.607 1660.9 110.296 1660.6 107.469C1660.31 104.711 1659.08 102.644 1656.91 101.268C1656.61 101.055 1656.28 100.862 1655.95 100.687C1654 99.6734 1651.62 99.3148 1648.79 99.6117C1645.97 99.9079 1643.69 100.754 1641.95 102.151C1641.65 102.394 1641.36 102.654 1641.09 102.931ZM1644.64 112.709C1645.85 113.462 1647.61 113.91 1650.27 113.63C1652.96 113.348 1654.52 112.537 1655.45 111.595L1655.47 111.57L1655.49 111.546C1656.35 110.705 1656.81 109.649 1656.62 107.887C1656.45 106.23 1655.81 105.307 1654.77 104.644L1654.71 104.604L1654.64 104.56C1653.54 103.797 1651.86 103.311 1649.21 103.59C1646.57 103.868 1644.96 104.695 1643.95 105.729L1643.94 105.734L1643.94 105.74C1643.11 106.581 1642.68 107.625 1642.86 109.333C1643.04 111.129 1643.7 112.076 1644.64 112.709ZM1711.84 124.641L1711.82 124.635C1706.01 121.809 1701.27 117.386 1697.57 111.534C1693.82 105.593 1691.58 98.316 1690.69 89.8744C1689.81 81.4328 1690.48 73.8503 1692.92 67.2591C1695.32 60.7657 1699.04 55.4528 1704.14 51.4804L1704.15 51.4724L1704.16 51.4646C1709.31 47.4991 1715.39 45.1923 1722.26 44.4704C1729.06 43.7554 1735.42 44.7571 1741.22 47.5753C1747.1 50.3902 1751.89 54.8089 1755.59 60.6716C1759.34 66.6124 1761.58 73.8891 1762.47 82.3308C1763.35 90.7724 1762.68 98.3549 1760.25 104.946C1757.84 111.451 1754.08 116.768 1748.91 120.744C1743.82 124.707 1737.81 127.009 1731.01 127.724C1724.14 128.446 1717.72 127.453 1711.85 124.646L1711.84 124.641ZM1746.46 117.581C1750.98 114.108 1754.32 109.435 1756.49 103.559C1758.66 97.6844 1759.33 90.7475 1758.49 82.7489C1757.65 74.7503 1755.56 68.1033 1752.21 62.808C1748.86 57.5126 1744.62 53.6361 1739.48 51.1784C1734.42 48.7135 1728.81 47.8035 1722.68 48.4485C1716.47 49.1008 1711.11 51.1631 1706.59 54.6354C1702.15 58.1004 1698.84 62.7705 1696.67 68.6457C1694.5 74.5208 1693.83 81.4577 1694.67 89.4563C1695.51 97.4549 1697.61 104.102 1700.95 109.397C1704.3 114.693 1708.5 118.573 1713.57 121.038C1718.71 123.495 1724.38 124.398 1730.59 123.746C1736.73 123.101 1742.02 121.046 1746.46 117.581ZM1731.56 101.496L1731.59 101.468C1732.41 100.659 1733.27 99.1538 1733.82 96.4737C1734.35 93.8199 1734.43 90.1497 1733.93 85.3303C1733.41 80.4219 1732.56 76.8627 1731.51 74.4642C1730.41 71.9504 1729.26 70.6536 1728.29 70.0316L1728.25 70.01L1728.22 69.9878C1727.22 69.3169 1726.16 69.0456 1724.85 69.1823C1723.57 69.3178 1722.53 69.805 1721.6 70.7084C1720.8 71.5403 1719.95 73.0859 1719.33 75.7831C1718.81 78.3455 1718.72 81.9915 1719.23 86.8748C1719.74 91.6705 1720.58 95.231 1721.64 97.7156C1722.8 100.218 1723.96 101.548 1724.91 102.196C1726 102.887 1727.12 103.147 1728.41 103.012C1729.71 102.875 1730.69 102.389 1731.54 101.524L1731.56 101.496ZM1717.99 99.3455C1716.69 96.3441 1715.78 92.3266 1715.25 87.293C1714.72 82.1904 1714.77 78.0714 1715.42 74.936C1716.14 71.7933 1717.25 69.4455 1718.76 67.8925C1720.34 66.3322 1722.23 65.4361 1724.44 65.2042C1726.64 64.9723 1728.65 65.4589 1730.45 66.6641C1732.31 67.8619 1733.89 69.9271 1735.18 72.8596C1736.46 75.7921 1737.37 79.8096 1737.91 84.9122C1738.44 89.9458 1738.38 94.0648 1737.74 97.2692C1737.09 100.405 1735.98 102.752 1734.4 104.313C1732.89 105.866 1731.03 106.758 1728.83 106.99C1726.62 107.222 1724.58 106.739 1722.72 105.541C1720.92 104.336 1719.34 102.271 1717.99 99.3455ZM1781.09 120.995L1801.49 83.156C1798.61 84.9007 1795.33 85.931 1791.76 86.3068C1787.62 86.7418 1783.67 86.2064 1779.99 84.6239C1776.27 83.0218 1773.24 80.4692 1770.93 77.0642L1770.92 77.0485L1770.91 77.0327C1768.57 73.5186 1767.23 69.3306 1766.74 64.6272C1766.25 59.9277 1766.68 55.5704 1768.26 51.6947C1769.81 47.8957 1772.23 44.7753 1775.53 42.4367C1778.79 40.046 1782.55 38.6565 1786.7 38.2196C1790.91 37.7781 1794.89 38.343 1798.53 40.0291C1802.22 41.6279 1805.23 44.1622 1807.53 47.5362C1809.96 50.9976 1811.33 55.1769 1811.83 59.8883C1811.96 61.1669 1812.02 62.4224 1812.01 63.6525L1827.52 34.8707L1852.05 32.2927L1831.62 70.1945C1834.53 68.4144 1837.81 67.3573 1841.39 66.9814C1845.59 66.5398 1849.57 67.1047 1853.22 68.7906C1856.9 70.3893 1859.91 72.9234 1862.21 76.297C1864.64 79.7587 1866.01 83.9382 1866.51 88.6501C1867.01 93.3738 1866.53 97.772 1864.89 101.715C1863.34 105.511 1860.91 108.629 1857.62 110.964C1854.39 113.293 1850.62 114.629 1846.44 115.069C1842.25 115.509 1838.26 114.984 1834.57 113.397L1834.55 113.388L1834.53 113.38C1830.88 111.763 1827.9 109.207 1825.61 105.826L1825.6 105.81L1825.59 105.794C1823.25 102.28 1821.92 98.0923 1821.42 93.389C1821.28 92.0519 1821.22 90.7425 1821.23 89.4641L1805.62 118.417L1781.09 120.995ZM1832.45 74.4528C1829.85 76.3286 1827.92 78.8324 1826.65 81.9641C1825.37 85.0958 1824.96 88.7647 1825.4 92.9709C1825.84 97.177 1827.01 100.714 1828.92 103.581C1830.82 106.379 1833.23 108.426 1836.15 109.723C1839.15 111.011 1842.44 111.467 1846.02 111.09C1849.61 110.714 1852.7 109.587 1855.29 107.711C1857.95 105.828 1859.92 103.321 1861.19 100.189C1862.53 96.9814 1862.97 93.2743 1862.53 89.0682C1862.09 84.862 1860.88 81.3634 1858.92 78.5723C1857.02 75.774 1854.57 73.7305 1851.58 72.4417C1848.65 71.0767 1845.39 70.5826 1841.8 70.9595C1838.22 71.3363 1835.1 72.5008 1832.45 74.4528ZM1800.61 78.9497C1803.27 77.0666 1805.23 74.5247 1806.5 71.3241C1807.83 68.1162 1808.28 64.4437 1807.85 60.3064C1807.41 56.1003 1806.2 52.6017 1804.24 49.8106C1802.34 47.0123 1799.89 44.9687 1796.9 43.6799C1793.97 42.3149 1790.71 41.8209 1787.12 42.1977C1783.61 42.5673 1780.52 43.7282 1777.87 45.6802C1775.21 47.5633 1773.24 50.0706 1771.97 53.2023C1770.69 56.334 1770.28 60.0029 1770.72 64.2091C1771.16 68.4153 1772.33 71.952 1774.24 74.8193C1776.14 77.6176 1778.58 79.6611 1781.57 80.9499C1784.57 82.2387 1787.82 82.6983 1791.34 82.3287C1794.93 81.9518 1798.01 80.8255 1800.61 78.9497ZM1790.92 67.6885L1790.95 67.639C1791.29 67.0713 1791.72 65.4724 1791.36 62.0399C1790.99 58.6075 1790.24 57.1326 1789.8 56.6467L1789.76 56.6044L1789.72 56.5609C1789.19 55.9425 1788.93 55.9647 1788.68 55.9908C1788.4 56.0203 1788.01 56.1067 1787.49 56.9266C1787.16 57.5269 1786.75 59.1302 1787.11 62.4865C1787.46 65.8428 1788.19 67.3275 1788.63 67.8459C1789.32 68.5384 1789.71 68.5433 1789.99 68.5139C1790.24 68.4877 1790.5 68.4547 1790.9 67.7388L1790.92 67.6885ZM1788.21 116.226L1803.1 114.66L1844.93 37.0626L1830.04 38.628L1788.21 116.226ZM1844.57 97.2865C1844.84 97.2583 1845.17 97.1965 1845.64 96.4008C1845.97 95.8331 1846.4 94.2341 1846.04 90.8017C1845.68 87.3692 1844.93 85.8943 1844.48 85.4084C1843.86 84.7275 1843.52 84.7353 1843.26 84.7634L1843.25 84.7636C1843.09 84.7805 1842.73 84.819 1842.17 85.688C1841.84 86.2879 1841.44 87.8912 1841.79 91.2482C1842.14 94.6053 1842.87 96.0898 1843.32 96.608C1844.04 97.342 1844.41 97.3036 1844.57 97.2866L1844.57 97.2865ZM1840.4 99.3422C1839.06 97.8795 1838.19 95.3209 1837.81 91.6663C1837.43 88.0118 1837.74 85.33 1838.74 83.6208C1839.82 81.9044 1841.18 80.9593 1842.84 80.7854C1844.56 80.6042 1846.09 81.2449 1847.43 82.7077C1848.77 84.1704 1849.63 86.729 1850.02 90.3836C1850.4 94.0381 1850.09 96.7199 1849.08 98.4291C1848.08 100.138 1846.71 101.083 1844.99 101.265C1843.33 101.438 1841.8 100.798 1840.4 99.3422ZM1571.78 116.804L1601.98 113.629L1600.4 98.5284L1570.2 101.703L1571.78 116.804ZM1794.4 69.6673C1793.46 71.3692 1792.13 72.3108 1790.41 72.4919C1788.69 72.6731 1787.12 72.036 1785.71 70.5805C1784.37 69.1178 1783.51 66.5591 1783.13 62.9046C1782.74 59.2501 1783.06 56.5682 1784.06 54.8591C1785.14 53.1427 1786.53 52.1939 1788.26 52.0127C1789.98 51.8316 1791.48 52.476 1792.75 53.9459C1794.09 55.4087 1794.95 57.9673 1795.33 61.6218C1795.72 65.2764 1795.41 67.9582 1794.4 69.6673Z" fill="#FF3C09"></path><path d="M-409.582 248.426L2315.78 -38.0218L2314.95 -45.978L-410.418 240.469L-409.582 248.426ZM2328.71 85.0124L-396.65 371.46L-395.814 379.416L2329.55 92.9686L2328.71 85.0124Z" fill="#211E1C" mask="url(#path-10-inside-2_24_104)"></path></g></g><defs><linearGradient id="paint0_linear_24_104" x1="2.51705e-06" y1="160" x2="1920" y2="160" gradientUnits="userSpaceOnUse"><stop stop-color="#D9D9D9" stop-opacity="0"></stop><stop offset="0.114583" stop-color="#D9D9D9"></stop><stop offset="0.9375" stop-color="#D9D9D9"></stop><stop offset="1" stop-color="#D9D9D9" stop-opacity="0"></stop></linearGradient><clipPath id="clip0_24_104"><rect width="1920" height="360" fill="white"></rect></clipPath></defs></svg>