<svg xmlns="http://www.w3.org/2000/svg" width="211" height="48" viewBox="0 0 211 48" fill="none"><path d="M52.1227 12.9006H59.2371L55.2522 31.8011C54.5205 35.3808 53.1246 37.4297 51.0082 38.8818C48.8677 40.1239 46.4097 40.711 43.9389 40.5703C39.2335 40.5703 34.7193 38.6004 34.2691 33.8161H41.4285C41.6536 34.9418 42.6894 35.5835 44.2653 35.5835C46.3929 35.5835 47.3722 34.3002 47.8113 32.2852L48.239 30.2026H48.0814C47.4532 30.8932 46.6912 31.4488 45.8418 31.8358C44.9922 32.2228 44.073 32.4331 43.1396 32.454C38.9971 32.454 35.7099 29.1557 35.7775 24.3264C35.8676 18.6979 39.5373 12.304 45.695 12.304C46.8619 12.2254 48.0268 12.4825 49.0522 13.0451C50.0776 13.6075 50.9204 14.452 51.481 15.4784H51.6049L52.1227 12.9006ZM46.0101 27.1745C48.7456 27.1745 50.2653 24.0226 50.3103 21.3096C50.3103 19.4972 49.6011 17.6398 47.5074 17.6398C44.648 17.6398 43.1959 20.8255 43.1509 23.5609C43.1509 25.4071 43.8601 27.1745 45.9538 27.1745M125.879 27.7824C125.879 28.9868 124.843 29.4709 123.481 29.4709C121.229 29.4709 120.475 28.3452 120.464 26.7692H113.384C113.26 32.6454 118.505 34.0975 123.166 34.0975C129.121 34.0975 132.982 31.5197 133.061 26.3753C133.061 22.2664 129.56 21.0169 126.116 20.2176C123.47 19.6098 122.311 19.1707 122.321 18.1688C122.333 17.167 123.515 16.7617 124.675 16.7617C126.127 16.7617 127.117 17.2795 127.219 18.6079H134.097C134.018 13.6998 129.593 12.259 125.091 12.259C119.62 12.259 115.353 14.7467 115.286 19.4521C115.286 23.1557 117.785 24.5178 121.556 25.486C123.976 26.1276 125.901 26.3302 125.879 27.7824ZM178.483 15.9512H178.359C178.053 14.8427 177.376 13.8722 176.443 13.2006C175.509 12.5291 174.374 12.1968 173.225 12.259C170.164 12.259 168.296 13.7786 166.528 16.0751H166.405L167.057 12.9006H159.897L155.608 33.4109H163.095L165.346 22.3452C165.863 19.9362 167.091 18.2477 168.949 18.2477C170.806 18.2477 171.053 19.7335 170.671 21.546L168.194 33.4109H175.679L177.932 22.3452C178.449 19.7786 179.677 18.2477 181.533 18.2477C183.391 18.2477 183.639 19.6548 183.256 21.546L180.779 33.4109H188.265L190.945 21.2195C192.07 16.0751 190.348 12.2138 185.407 12.2138C184.031 12.2082 182.678 12.5473 181.468 13.2002C180.259 13.8532 179.233 14.799 178.483 15.9512ZM1.97266 33.4109H9.70624L15.6837 4.64917H7.9614L1.97266 33.4109ZM25.2522 12.2927C30.4754 12.2927 35.4624 15.1519 35.3835 21.6247C35.316 28.7054 30.498 34.0075 23.1358 34.0075C18.0702 34.0075 13.0046 31.1933 13.0946 24.7542C13.2184 17.8424 17.9689 12.2927 25.2522 12.2927ZM23.3498 28.9868C26.6481 28.9868 27.8526 24.2026 27.8526 21.3883C27.8526 19.3734 27.2335 17.4034 25.0608 17.4034C21.7963 17.4034 20.6818 22.469 20.6818 25.0807C20.6818 27.1745 21.2672 28.9868 23.3948 28.9868M18.2616 4.64917L17.1358 10.4015H82.0777L83.2034 4.64917H18.2616ZM70.4942 12.2927C75.7174 12.2927 80.7043 15.1519 80.6256 21.6247C80.558 28.7054 75.7287 34.0075 68.3666 34.0075C63.3009 34.0075 58.2352 31.1933 58.3366 24.7542C58.4942 17.8424 63.2446 12.2927 70.4942 12.2927ZM68.6256 28.9868C71.9239 28.9868 73.1283 24.2026 73.1283 21.3883C73.1283 19.3734 72.498 17.4034 70.3254 17.4034C67.072 17.4034 65.9463 22.469 65.9463 25.0807C65.9463 27.1745 66.5317 28.9868 68.6706 28.9868M85.8601 4.64917L84.7344 10.4015H92.209L93.3348 4.64917H85.8601ZM79.8714 33.4109H87.3572L91.6461 12.9006H84.1152L79.8714 33.4109ZM103.759 34.0975C102.567 34.1821 101.376 33.9331 100.318 33.3784C99.2601 32.8236 98.3778 31.985 97.77 30.9569H97.6461L95.3948 41.3358H87.8187L93.8976 12.9006H101.012L100.449 15.636C101.192 14.6256 102.155 13.7968 103.264 13.2118C104.373 12.6269 105.601 12.3011 106.854 12.259C111.357 12.259 114.003 16.1201 113.924 21.1408C113.822 27.4559 110.547 34.0975 103.714 34.0975H103.759ZM103.466 18.0676C100.573 18.0676 98.7944 21.7711 98.7494 24.6192C98.7494 26.6004 99.4473 28.8067 101.822 28.8067C104.918 28.8067 106.19 24.7092 106.224 21.9737C106.224 20.1163 105.684 18.0676 103.466 18.0676ZM146.75 30.1801H146.873L146.221 33.4334H153.334L157.624 12.923H150.149L147.763 24.3827C147.279 26.758 145.815 28.0075 143.969 28.0075C142.123 28.0075 141.717 26.2739 142.089 24.4615L144.509 12.923H137.035L134.389 25.5872C133.263 31.1032 135.83 34.0751 140.131 34.0751C141.481 34.0619 142.804 33.6929 143.966 33.005C145.127 32.3172 146.089 31.335 146.75 30.1576V30.1801ZM186.903 41.4372L188.029 35.6848H99.2559L98.1302 41.4372H186.903Z" fill="white"></path><path d="M194.953 18.5291C194.879 18.5234 194.807 18.5032 194.741 18.4694C194.674 18.4358 194.615 18.3894 194.567 18.3329C194.519 18.2764 194.483 18.211 194.461 18.1403C194.438 18.0696 194.429 17.9952 194.435 17.9212C194.529 16.9187 194.41 15.9076 194.086 14.9543C193.762 14.001 193.24 13.1268 192.554 12.3893C191.869 11.6517 191.035 11.0673 190.108 10.6743C189.181 10.2813 188.181 10.0886 187.174 10.1088C187.025 10.1088 186.883 10.0495 186.777 9.94398C186.671 9.83843 186.611 9.69526 186.611 9.54598C186.611 9.3967 186.671 9.25355 186.777 9.148C186.883 9.04243 187.025 8.98313 187.174 8.98313C187.444 9.00058 187.715 9.00058 187.985 8.98313C189.985 8.77012 191.847 7.86677 193.252 6.42853C194.659 4.9903 195.518 3.10714 195.685 1.1032C195.697 0.961865 195.76 0.830025 195.865 0.734022C195.969 0.638019 196.106 0.584936 196.247 0.585391C196.322 0.591073 196.394 0.611339 196.46 0.645012C196.526 0.678685 196.585 0.725105 196.633 0.781602C196.682 0.8381 196.718 0.903555 196.741 0.974207C196.763 1.04486 196.772 1.1193 196.766 1.19326C196.672 2.19486 196.791 3.20496 197.114 4.1575C197.438 5.11002 197.959 5.98354 198.643 6.72094C199.328 7.45832 200.159 8.04299 201.085 8.4367C202.011 8.8304 203.009 9.02428 204.015 9.00564C204.164 9.00564 204.308 9.06496 204.413 9.17051C204.519 9.27606 204.578 9.41922 204.578 9.5685C204.578 9.71778 204.519 9.86095 204.413 9.9665C204.308 10.0721 204.164 10.1313 204.015 10.1313C201.877 10.1667 199.826 10.9905 198.257 12.4448C196.689 13.8991 195.712 15.8814 195.517 18.0113C195.505 18.1526 195.441 18.2845 195.337 18.3805C195.232 18.4765 195.095 18.5296 194.953 18.5291Z" fill="white"></path></svg>