<svg xmlns="http://www.w3.org/2000/svg" width="126" height="48" viewBox="0 0 126 48" fill="none"><g clip-path="url(#clip0_31_354)"><path d="M30.2231 0C25.3494 0 20.6753 1.93608 17.229 5.38234L5.98195 16.6294C2.53569 20.0757 0.599609 24.7498 0.599609 29.6235C0.599609 39.7726 8.82703 48 18.9761 48C23.8498 48 28.5239 46.0638 31.9702 42.6176L39.7499 34.8379C39.75 34.8381 39.7499 34.8378 39.7499 34.8379L62.4172 12.1706C64.0631 10.5247 66.2955 9.6 68.6231 9.6C72.5201 9.6 75.8239 12.1399 76.9694 15.6545L84.1231 8.50074C80.8596 3.38934 75.1372 0 68.6231 0C63.7494 0 59.0753 1.93608 55.629 5.38234L25.182 35.8294C23.5361 37.4754 21.3038 38.4 18.9761 38.4C14.129 38.4 10.1996 34.4707 10.1996 29.6235C10.1996 27.2958 11.1243 25.0635 12.7702 23.4176L24.0172 12.1706C25.6631 10.5247 27.8955 9.6 30.2231 9.6C34.1203 9.6 37.4239 12.14 38.5694 15.6547L45.7233 8.50091C42.4598 3.38944 36.7374 0 30.2231 0Z" fill="white"></path><path d="M63.5822 35.8294C61.9363 37.4754 59.704 38.4 57.3763 38.4C53.4798 38.4 50.1763 35.8608 49.0306 32.3467L41.877 39.5003C45.1406 44.611 50.8627 48 57.3763 48C62.2501 48 66.9242 46.0638 70.3704 42.6176L100.817 12.1706C102.463 10.5247 104.696 9.6 107.023 9.6C111.871 9.6 115.8 13.5293 115.8 18.3765C115.8 20.7042 114.875 22.9365 113.229 24.5824L101.982 35.8294C100.336 37.4754 98.104 38.4 95.7763 38.4C91.8795 38.4 88.5758 35.8603 87.4302 32.3459L80.2766 39.4997C83.5402 44.6109 89.2624 48 95.7763 48C100.65 48 105.324 46.0638 108.77 42.6176L120.017 31.3706C123.464 27.9243 125.4 23.2502 125.4 18.3765C125.4 8.22742 117.172 0 107.023 0C102.15 0 97.4755 1.93608 94.0293 5.38234L63.5822 35.8294Z" fill="white"></path></g><defs><clipPath id="clip0_31_354"><rect width="124.8" height="48" fill="white" transform="translate(0.599609)"></rect></clipPath></defs></svg>