<svg xmlns="http://www.w3.org/2000/svg" width="160" height="40" viewBox="0 0 160 40" fill="none"><path d="M4.5293 37.1H38.7293V2.89999H4.5293V37.1ZM32.1467 16.7093H24.92V9.48266H32.1467V16.7093ZM11.1106 9.48266H18.3413V23.2907H32.1467V30.5173H11.1106V9.48266ZM61 2.89999C57.6179 2.89999 54.3117 3.9029 51.4997 5.78187C48.6876 7.66085 46.4959 10.3315 45.2016 13.4561C43.9073 16.5808 43.5688 20.0189 44.2285 23.336C44.8884 26.6531 46.5169 29.7 48.9084 32.0915C51.2999 34.4831 54.3468 36.1116 57.6639 36.7715C60.9811 37.4312 64.4192 37.0927 67.5439 35.7984C70.6685 34.5041 73.3391 32.3124 75.2181 29.5003C77.0971 26.6881 78.1 23.382 78.1 20C78.0947 15.4664 76.2913 11.12 73.0856 7.91433C69.8799 4.70859 65.5336 2.90529 61 2.89999ZM61 30.5173C58.9199 30.5173 56.8864 29.9005 55.1568 28.7448C53.4273 27.5892 52.0792 25.9467 51.2832 24.0248C50.4872 22.1031 50.2789 19.9884 50.6847 17.9481C51.0905 15.908 52.0923 14.034 53.5631 12.5631C55.034 11.0922 56.908 10.0906 58.9481 9.68475C60.9883 9.27894 63.1029 9.48722 65.0248 10.2832C66.9465 11.0793 68.5892 12.4273 69.7448 14.1569C70.9005 15.8864 71.5173 17.9199 71.5173 20C71.5131 22.7881 70.4036 25.4608 68.4321 27.4323C66.4607 29.4037 63.788 30.5131 61 30.5173ZM139.292 2.89999C135.909 2.89974 132.604 3.90241 129.791 5.78122C126.979 7.66003 124.787 10.3306 123.493 13.4552C122.198 16.5797 121.859 20.0181 122.519 23.3352C123.179 26.6524 124.807 29.6995 127.199 32.0911C129.59 34.4827 132.637 36.1115 135.955 36.7713C139.271 37.4312 142.709 37.0927 145.835 35.7985C148.959 34.5043 151.629 32.3125 153.508 29.5004C155.388 26.6883 156.391 23.3821 156.391 20C156.385 15.4667 154.583 11.1205 151.377 7.91479C148.172 4.7091 143.825 2.90565 139.292 2.89999ZM139.292 30.5173C137.212 30.5176 135.179 29.9009 133.449 28.7455C131.719 27.59 130.371 25.9475 129.574 24.0257C128.778 22.104 128.57 19.9892 128.975 17.9489C129.381 15.9088 130.383 14.0347 131.853 12.5636C133.324 11.0926 135.199 10.0908 137.239 9.68485C139.279 9.27893 141.393 9.48713 143.315 10.2831C145.237 11.0791 146.88 12.4271 148.036 14.1568C149.191 15.8864 149.808 17.9199 149.808 20C149.804 22.7879 148.695 25.4603 146.723 27.4317C144.752 29.4032 142.08 30.5128 139.292 30.5173ZM100.145 2.89999C96.7632 2.89999 93.4571 3.9029 90.6451 5.78187C87.8329 7.66085 85.6412 10.3315 84.3469 13.4561C83.0527 16.5808 82.7141 20.0189 83.3739 23.336C84.0337 26.6531 85.6623 29.7 88.0537 32.0915C90.4452 34.4831 93.4921 36.1116 96.8092 36.7715C100.126 37.4312 103.565 37.0927 106.689 35.7984C109.814 34.5041 112.484 32.3124 114.363 29.5003C116.242 26.6881 117.245 23.382 117.245 20C117.24 15.4664 115.437 11.12 112.231 7.91433C109.025 4.70859 104.679 2.90529 100.145 2.89999ZM100.145 30.5173C98.2072 30.5183 96.3067 29.9837 94.6532 28.9727C92.9999 27.9616 91.6579 26.5135 90.7756 24.7879C89.8935 23.0623 89.5051 21.1264 89.6536 19.1941C89.8021 17.2617 90.4816 15.408 91.6172 13.8375C92.7528 12.267 94.3003 11.0408 96.0887 10.2943C97.8772 9.54773 99.8372 9.30989 101.752 9.60698C103.667 9.90409 105.463 10.7246 106.941 11.9779C108.42 13.2312 109.523 14.8687 110.129 16.7093H100.145V23.2907H110.129C109.435 25.3911 108.097 27.2196 106.305 28.5167C104.513 29.8139 102.358 30.5137 100.145 30.5173Z" fill="white"></path></svg>