<svg xmlns="http://www.w3.org/2000/svg" width="151" height="48" viewBox="0 0 151 48" fill="none"><g clip-path="url(#clip0_31_370)"><path d="M142.577 2.57874C142.577 1.15914 143.728 0.00713838 145.147 0.00713838H146.862C147.544 0.00713838 148.198 0.278074 148.681 0.760343C149.163 1.24261 149.434 1.89671 149.434 2.57874C149.434 3.26077 149.163 3.91487 148.681 4.39713C148.198 4.8794 147.544 5.15034 146.862 5.15034H145.147C144.81 5.15034 144.476 5.08381 144.164 4.95456C143.852 4.82531 143.568 4.63587 143.33 4.39706C143.091 4.15825 142.902 3.87475 142.772 3.56276C142.643 3.25076 142.577 2.91639 142.577 2.57874ZM70.5879 17.1479C70.5879 26.6135 62.9151 34.2875 53.4483 34.2875C43.9827 34.2875 36.3087 26.6135 36.3087 17.1479C36.3087 7.67994 43.9827 0.00833838 53.4483 0.00833838C62.9151 0.00833838 70.5879 7.67994 70.5879 17.1479ZM32.9655 17.0627C33.9135 17.0627 34.6887 17.8307 34.5939 18.7739C34.2699 22.0017 33.0366 25.0713 31.0372 27.6259C29.0378 30.1805 26.3545 32.1153 23.2991 33.2053C20.2438 34.2953 16.9418 34.4959 13.7769 33.7837C10.6121 33.0714 7.71432 31.4756 5.42047 29.1818C3.12661 26.8879 1.53083 23.9902 0.818597 20.8253C0.10636 17.6605 0.306912 14.3585 1.39694 11.3031C2.48698 8.24771 4.42173 5.56441 6.97634 3.56503C9.53095 1.56565 12.6005 0.332308 15.8283 0.00833838C16.7703 -0.0876616 17.5395 0.689938 17.5395 1.63554V15.3479C17.5395 16.2959 18.3075 17.0627 19.2543 17.0627H32.9655ZM94.5843 37.7159C95.948 37.7159 97.2559 38.2577 98.2202 39.222C99.1846 40.1863 99.7263 41.4942 99.7263 42.8579C99.7263 44.2217 99.1846 45.5296 98.2202 46.4939C97.2559 47.4582 95.948 47.9999 94.5843 47.9999H86.0151C84.6514 47.9999 83.3435 47.4582 82.3792 46.4939C81.4148 45.5296 80.8731 44.2217 80.8731 42.8579C80.8731 41.4942 81.4148 40.1863 82.3792 39.222C83.3435 38.2577 84.6514 37.7159 86.0151 37.7159H94.5843ZM89.4423 34.2875C98.9091 34.2875 106.583 26.6135 106.583 17.1479C106.587 14.2403 105.848 11.3798 104.436 8.83794L107.268 6.00594C107.595 5.67958 107.853 5.29216 108.03 4.86581C108.206 4.43946 108.297 3.98252 108.297 3.52109C108.297 3.05966 108.206 2.60276 108.029 2.1765C107.852 1.75023 107.593 1.36294 107.267 1.03674C106.941 0.710535 106.553 0.451807 106.127 0.275327C105.701 0.0988475 105.244 0.00807186 104.782 0.00818329C104.321 0.00829473 103.864 0.099291 103.438 0.275977C103.011 0.452662 102.624 0.711577 102.298 1.03794L99.8259 3.50994C96.8436 1.23223 93.1937 0.00110019 89.4411 0.00713838C79.9767 0.00833838 72.3039 7.67994 72.3039 17.1479C72.3039 26.6135 79.9779 34.2875 89.4435 34.2875H89.4423ZM142.577 17.1479C142.577 26.6135 134.903 34.2875 125.436 34.2875C115.971 34.2875 108.297 26.6135 108.297 17.1479C108.297 7.67994 115.971 0.00833838 125.436 0.00833838C134.903 0.00833838 142.577 7.68114 142.577 17.1479Z" fill="white"></path></g><defs><clipPath id="clip0_31_370"><rect width="150" height="48" fill="white" transform="translate(0.400391)"></rect></clipPath></defs></svg>