<svg xmlns="http://www.w3.org/2000/svg" width="219" height="48" viewBox="0 0 219 48" fill="none"><g clip-path="url(#clip0_31_424)"><path fill-rule="evenodd" clip-rule="evenodd" d="M69.7539 3.19456C69.7539 1.56796 71.0869 0.249329 72.7314 0.249329H77.9185C79.0889 0.249329 80.2232 0.650537 81.1282 1.38466L82.7061 2.6646L82.7455 2.7002C82.7819 2.68805 82.8183 2.67617 82.8549 2.6646C85.7016 1.76268 89.1555 1.59115 92.6807 1.59115C96.2059 1.59115 99.6598 1.76268 102.507 2.6646C102.543 2.67617 102.579 2.68805 102.616 2.7002L102.655 2.6646L104.233 1.38466C105.138 0.650537 106.273 0.249329 107.443 0.249329H112.63C114.274 0.249329 115.607 1.56796 115.607 3.19456V5.01526C115.607 6.42395 115.008 7.76747 113.955 8.71623L112.682 9.86353C112.061 10.4236 111.315 10.8313 110.505 11.0535L110.203 11.1361C111.383 13.92 112.035 16.8958 112.035 19.303C112.035 28.9866 105.977 33.1688 100.64 36.8538C96.4371 39.7558 92.6807 42.3494 92.6807 47.0786C92.6807 42.3494 88.9243 39.7558 84.7212 36.8538C79.3841 33.1688 73.3269 28.9866 73.3269 19.303C73.3269 16.8958 73.9785 13.92 75.158 11.1361L74.8569 11.0535C74.0467 10.8313 73.3009 10.4236 72.6794 9.86353L71.4065 8.71623C70.3538 7.76747 69.7539 6.42395 69.7539 5.01526V3.19456ZM96.5515 27.2198C96.5515 27.6824 96.3475 28.126 95.9846 28.4532C95.6217 28.7803 95.1294 28.9641 94.616 28.9641C94.1729 28.9641 93.7454 28.8271 93.4033 28.5791C93.9856 30.1209 95.4758 31.5819 97.7425 29.2325C99.7435 27.0494 97.6535 22.445 95.6174 19.7128C94.9387 18.8021 93.8245 18.3638 92.6807 18.3638C91.5369 18.3638 90.4227 18.8021 89.744 19.7128C87.7079 22.445 85.6179 27.0494 87.6189 29.2325C89.8856 31.5819 91.3758 30.1209 91.9581 28.5791C91.616 28.8271 91.1885 28.9641 90.7454 28.9641C90.232 28.9641 89.7397 28.7803 89.3768 28.4532C89.0138 28.126 88.8099 27.6824 88.8099 27.2198H96.5515ZM85.2691 13.59H79.8775L84.1266 16.9555C85.0617 17.696 86.4284 17.4592 87.007 16.4565C87.7375 15.1905 86.7672 13.59 85.2691 13.59ZM100.092 13.59H105.484L101.235 16.9555C100.3 17.696 98.933 17.4592 98.3544 16.4565C97.6239 15.1905 98.5942 13.59 100.092 13.59Z" fill="white"></path><path d="M122.029 33.4201H126.806V15.4025H122.029V33.4201ZM122.029 12.5928H126.806V8.30786H122.029V12.5928Z" fill="white"></path><path d="M129.885 39.3206H134.661V31.383H134.732C135.75 32.9284 137.401 33.9469 139.93 33.9469C144.566 33.9469 147.727 30.2591 147.727 24.4288C147.727 18.8093 144.671 14.9108 139.895 14.9108C137.436 14.9108 135.75 16.0698 134.591 17.6503H134.486V15.4025H129.885V39.3206ZM138.911 29.9781C136.066 29.9781 134.556 27.8357 134.556 24.5693C134.556 21.3381 135.75 18.7742 138.735 18.7742C141.686 18.7742 142.88 21.1625 142.88 24.5693C142.88 27.9762 141.335 29.9781 138.911 29.9781Z" fill="white"></path><path d="M157.255 33.9469C161.751 33.9469 164.842 31.7693 164.842 28.1518C164.842 23.9371 161.505 23.0942 158.485 22.462C155.921 21.9352 153.533 21.7947 153.533 20.2493C153.533 18.9498 154.762 18.2474 156.623 18.2474C158.66 18.2474 159.89 18.9498 160.1 20.8815H164.42C164.069 17.264 161.435 14.9108 156.693 14.9108C152.584 14.9108 149.353 16.7723 149.353 20.6708C149.353 24.6045 152.514 25.4825 155.745 26.1147C158.204 26.6064 160.487 26.782 160.487 28.503C160.487 29.7674 159.293 30.5752 157.185 30.5752C155.043 30.5752 153.568 29.662 153.252 27.5898H148.826C149.107 31.4181 152.022 33.9469 157.255 33.9469Z" fill="white"></path><path d="M182.976 33.4201V15.4025H178.2V25.7986C178.2 28.1869 176.83 29.8727 174.582 29.8727C172.545 29.8727 171.597 28.7137 171.597 26.6064V15.4025H166.855V27.4142C166.855 31.3479 169.103 33.9118 173.107 33.9118C175.636 33.9118 177.041 32.9635 178.27 31.3127H178.375V33.4201H182.976Z" fill="white"></path><path d="M186.066 33.4201H190.843V22.9537C190.843 20.5654 192.142 19.0201 194.074 19.0201C195.83 19.0201 196.849 20.0737 196.849 22.1108V33.4201H201.625V22.9537C201.625 20.5654 202.855 19.0201 204.857 19.0201C206.613 19.0201 207.631 20.0737 207.631 22.1108V33.4201H212.408V21.303C212.408 17.3693 210.265 14.9108 206.472 14.9108C204.189 14.9108 202.293 16.1049 201.063 18.0718H200.993C200.115 16.1752 198.289 14.9108 196.006 14.9108C193.512 14.9108 191.756 16.1752 190.773 17.8259H190.667V15.4025H186.066V33.4201Z" fill="white"></path><path d="M1.4375 33.4201H6.21408V8.30786H1.4375V33.4201Z" fill="white"></path><path d="M17.8932 33.9469C23.4776 33.9469 27.3059 29.8025 27.3059 24.4288C27.3059 19.0552 23.4776 14.9108 17.8932 14.9108C12.3088 14.9108 8.48047 19.0552 8.48047 24.4288C8.48047 29.8025 12.3088 33.9469 17.8932 33.9469ZM17.8932 30.2942C14.943 30.2942 13.3274 27.941 13.3274 24.4288C13.3274 20.9167 14.943 18.5284 17.8932 18.5284C20.8083 18.5284 22.4591 20.9167 22.4591 24.4288C22.4591 27.941 20.8083 30.2942 17.8932 30.2942Z" fill="white"></path><path d="M37.464 39.5664C40.1333 39.5664 42.4514 38.9342 43.9616 37.5293C45.2962 36.3001 46.104 34.5791 46.104 32.0503V15.4025H41.5031V17.2991H41.4328C40.3441 15.7888 38.6933 14.9108 36.4455 14.9108C31.8797 14.9108 28.6484 18.3527 28.6484 23.7264C28.6484 29.1703 32.5821 32.3313 36.586 32.3313C38.8689 32.3313 40.2387 31.4181 41.2923 30.224H41.3977V32.1908C41.3977 34.6493 40.0982 35.9488 37.3938 35.9488C35.1811 35.9488 34.1626 35.0708 33.7762 33.9469H29.0348C29.5265 37.4591 32.547 39.5664 37.464 39.5664ZM37.3938 28.503C34.9353 28.503 33.3197 26.7118 33.3197 23.6562C33.3197 20.6357 34.9353 18.7391 37.3587 18.7391C40.2387 18.7391 41.6436 20.9869 41.6436 23.621C41.6436 26.2903 40.4143 28.503 37.3938 28.503Z" fill="white"></path><path d="M57.7154 33.9469C63.2998 33.9469 67.1281 29.8025 67.1281 24.4288C67.1281 19.0552 63.2998 14.9108 57.7154 14.9108C52.131 14.9108 48.3027 19.0552 48.3027 24.4288C48.3027 29.8025 52.131 33.9469 57.7154 33.9469ZM57.7154 30.2942C54.7652 30.2942 53.1496 27.941 53.1496 24.4288C53.1496 20.9167 54.7652 18.5284 57.7154 18.5284C60.6305 18.5284 62.2813 20.9167 62.2813 24.4288C62.2813 27.941 60.6305 30.2942 57.7154 30.2942Z" fill="white"></path><path d="M212.193 11.4688C212.193 10.6606 212.848 10.0054 213.657 10.0054H216.584C217.391 10.0054 218.047 10.6606 218.047 11.4688C218.047 12.277 217.391 12.9322 216.584 12.9322H213.657C212.848 12.9322 212.193 12.277 212.193 11.4688Z" fill="white"></path></g><defs><clipPath id="clip0_31_424"><rect width="217.756" height="48" fill="white" transform="translate(0.636719)"></rect></clipPath></defs></svg>