<svg xmlns="http://www.w3.org/2000/svg" width="77" height="48" viewBox="0 0 77 48" fill="none"><g clip-path="url(#clip0_31_339)"><path d="M71.757 5.9002C71.757 5.95616 71.757 6.02612 71.7427 6.0681C71.6711 6.61379 71.6711 7.15947 71.714 7.71915C71.7427 7.85907 71.7713 7.99899 71.8858 8.11093C72.0718 8.3208 72.358 8.27883 72.4725 8.02697C72.5298 7.90105 72.5298 7.77511 72.5011 7.64919C72.358 7.11749 72.3294 6.55782 72.3151 6.01213C72.3151 5.98415 72.3151 5.94217 72.3151 5.9002C72.4725 5.8862 72.6156 5.87221 72.7444 5.87221C72.8446 5.85822 72.9305 5.84423 73.002 5.80225C73.2166 5.69032 73.2166 5.45246 72.9876 5.34052C72.9018 5.29854 72.7874 5.28455 72.6872 5.28455C72.3294 5.29854 71.9717 5.29854 71.6139 5.29854C71.4851 5.29854 71.3563 5.31254 71.2275 5.32652C71.1559 5.34052 71.0701 5.34052 71.0129 5.3825C70.9126 5.42447 70.8555 5.49443 70.8555 5.59237C70.8698 5.69032 70.9126 5.74628 71.0129 5.78826C71.0701 5.83024 71.1416 5.84423 71.2132 5.84423C71.3849 5.85822 71.571 5.8862 71.757 5.9002ZM75.6923 6.54383C75.6923 6.55782 75.7066 6.57181 75.7066 6.57181C75.7639 6.94959 75.8212 7.31339 75.8641 7.67717C75.8785 7.80309 75.8927 7.91503 75.9786 8.01297C76.1646 8.25084 76.4509 8.22285 76.5796 7.97101C76.6369 7.84507 76.6511 7.71915 76.6226 7.57923C76.5367 7.15947 76.4937 6.73971 76.4079 6.33395C76.3506 6.08209 76.2791 5.84423 76.2076 5.62036C76.1646 5.48044 76.0645 5.38249 75.8927 5.3685C75.721 5.34052 75.5922 5.42447 75.5206 5.5504C75.4348 5.66233 75.3632 5.77427 75.3059 5.9002C75.2058 6.12407 75.1199 6.34794 75.0055 6.55782C74.9911 6.61379 74.9768 6.65576 74.9482 6.69773C74.9339 6.66975 74.9197 6.65576 74.9197 6.65576C74.7335 6.30596 74.5618 5.95616 74.3758 5.62036C74.3471 5.59237 74.3329 5.56439 74.3186 5.5364C74.2327 5.41048 74.1326 5.34052 73.9751 5.34052C73.832 5.35451 73.7175 5.43846 73.646 5.56439C73.6173 5.62036 73.6173 5.66233 73.603 5.7183C73.5458 6.16604 73.4742 6.61379 73.417 7.06153C73.3883 7.31339 73.3741 7.56523 73.3741 7.81709C73.3598 7.87305 73.3741 7.94301 73.4026 7.99899C73.4313 8.11092 73.5172 8.18089 73.6316 8.19487C73.7747 8.20887 73.8749 8.16689 73.9179 8.05495C73.9607 7.97101 73.9751 7.90105 73.9894 7.83109C74.0467 7.57923 74.0896 7.34137 74.1326 7.10351C74.1611 6.96359 74.1754 6.85165 74.2184 6.69773C74.247 6.75371 74.2756 6.79568 74.3043 6.83765C74.433 7.00556 74.5618 7.17347 74.7193 7.31339C74.8767 7.42531 75.0055 7.41133 75.1342 7.28539C75.1629 7.25741 75.1772 7.24343 75.2058 7.21543C75.3346 7.01955 75.4921 6.82367 75.6208 6.62777C75.6495 6.59979 75.6638 6.57181 75.6923 6.54383Z" fill="white"></path><path d="M42.7193 6.1751C42.6198 6.44101 42.6008 6.63259 42.6468 6.79182C42.6975 7.00834 42.8292 7.07923 43.0079 7.02416C44.6887 6.61776 48.3746 7.77129 49.7392 8.09279C50.061 8.1603 50.3228 7.7541 50.1032 7.38991C49.7827 7.03722 46.0985 5.52721 44.6928 5.44488C44.1418 5.41443 43.1567 5.27628 42.7193 6.1751Z" fill="white"></path><path d="M57.1239 1.28707C57.303 1.38817 57.4031 1.4846 57.4525 1.59235C57.5262 1.73369 57.4873 1.83148 57.3636 1.88138C56.2525 2.41158 54.774 4.69421 54.1772 5.48147C54.0325 5.66257 53.6988 5.55733 53.6484 5.25951C53.6588 4.92277 54.9694 2.44561 55.7009 1.77091C55.9883 1.50749 56.4632 0.990626 57.1239 1.28707Z" fill="white"></path><path d="M48.2764 0.163414C48.4916 0.0048206 48.7152 -0.0507552 48.8294 0.0523104C50.5059 1.45407 51.3948 3.67389 51.9453 5.70608C51.966 5.75342 51.9673 5.82136 51.9508 5.89224C51.9439 5.95282 51.8986 6.01681 51.8267 6.06633C51.7499 6.12099 51.6838 6.13764 51.6527 6.09053C50.918 5.11344 46.7216 1.31173 48.2764 0.163414Z" fill="white"></path><path d="M12.7763 24.4665C13.1781 24.174 13.6149 23.9305 14.0771 23.7416C14.5607 23.6064 15.0762 23.6288 15.5456 23.8055C16.0149 23.9822 16.4128 24.3035 16.6787 24.7209C16.9167 25.1372 17.0097 25.6178 16.9441 26.0904C16.8784 26.5629 16.6575 27.0017 16.3145 27.3409C16.0486 27.6158 15.7468 27.8553 15.417 28.0532C13.9471 28.9816 12.4641 29.8592 10.9812 30.7876C10.6778 31.02 10.3559 31.2285 10.0186 31.4109C9.50559 31.661 8.9193 31.728 8.36109 31.6003C7.80289 31.4726 7.3079 31.1581 6.96171 30.7114C6.70292 30.395 6.48451 30.0491 6.3113 29.6811C4.90643 26.794 3.44953 23.9196 2.09668 20.9816C1.47229 19.7098 0.964979 18.2471 0.470672 16.8353C0.256811 16.4252 0.215049 15.9496 0.354278 15.5098C0.493507 15.0699 0.802741 14.7005 1.2162 14.4802C1.62967 14.2598 2.11473 14.2059 2.56824 14.3299C3.02175 14.4538 3.40794 14.7458 3.64464 15.1438C4.37222 16.0892 5.01628 17.0933 5.56985 18.1454C6.97472 20.6891 8.31456 23.2328 9.6674 25.7002C9.74617 25.8365 9.83303 25.9681 9.92756 26.0944C10.9458 25.6759 11.9035 25.1285 12.7763 24.4665Z" fill="white"></path><path d="M27.3025 23.5791C24.0895 27.2547 18.7041 26.3263 15.9985 21.595C14.0732 18.2373 13.735 12.692 17.9237 9.19437C18.8181 8.46212 19.8877 7.9633 21.0326 7.74444C22.4364 7.54767 23.8678 7.78981 25.1224 8.43626C26.3769 9.08271 27.3904 10.1004 28.018 11.3438C30.3074 15.4138 29.9822 20.6029 27.3025 23.5791ZM26.0017 15.0068C25.6603 14.0066 24.9756 13.1528 24.0634 12.5902C23.5473 12.2305 22.9202 12.0556 22.2877 12.095C21.655 12.1344 21.0557 12.3856 20.5903 12.8064C18.7302 14.4217 18.3399 18.25 19.6927 20.5267C19.8652 20.8979 20.1184 21.2278 20.4349 21.4933C20.7513 21.7588 21.1233 21.9536 21.5248 22.0637C21.9262 22.174 22.3474 22.1972 22.759 22.1316C23.1706 22.0659 23.5625 21.9132 23.9074 21.684C24.9158 20.9196 25.6555 19.8671 26.0238 18.6728C26.3922 17.4783 26.3708 16.2014 25.9627 15.0195L26.0017 15.0068Z" fill="white"></path><path d="M40.4149 16.6093C40.086 16.6785 39.7462 16.6826 39.4155 16.6214C39.085 16.5602 38.7701 16.4351 38.4898 16.2532C38.2444 16.116 38.0332 15.9274 37.8713 15.7008C37.7096 15.4742 37.6011 15.2154 37.5539 14.9429C37.5065 14.6705 37.5217 14.3913 37.598 14.1252C37.6743 13.8591 37.8101 13.6129 37.9955 13.4042C38.3184 12.9849 38.7768 12.6846 39.2963 12.5521C40.6526 12.1672 42.0489 11.9326 43.4589 11.8526C43.7687 11.8174 44.0825 11.843 44.382 11.928C44.6816 12.0131 44.9606 12.1557 45.203 12.3477C45.4453 12.5396 45.646 12.7769 45.7933 13.0457C45.9405 13.3145 46.0313 13.6094 46.0605 13.913C46.4669 15.4043 46.5115 16.9679 46.1905 18.479C45.0199 23.3629 40.9873 25.0417 36.4605 23.4773C35.1898 23.0591 34.0756 22.2797 33.2605 21.2389C32.1733 19.9854 31.4025 18.5 31.0101 16.9019C30.6922 15.4788 30.727 14.0021 31.1117 12.595C31.4964 11.1878 32.2198 9.89099 33.2214 8.81284C34.1721 7.64102 35.4059 6.7188 36.8117 6.12922C37.7001 5.65047 38.7396 5.51435 39.7256 5.74766C39.9492 5.80818 40.1522 5.92611 40.3136 6.08921C40.4749 6.25233 40.5887 6.45466 40.6431 6.67525C40.6976 6.89583 40.6906 7.12663 40.623 7.34373C40.5554 7.56081 40.4297 7.75626 40.2589 7.90982C39.934 8.19733 39.5811 8.45293 39.2052 8.67293C38.0487 9.39301 37.0424 10.3209 36.2393 11.4074C35.713 12.1105 35.3505 12.9179 35.1774 13.7726C35.0043 14.6273 35.0249 15.5088 35.2378 16.355C35.5328 17.5088 36.1874 18.5444 37.1109 19.3184C39.9726 21.8621 43.693 19.4074 43.0426 15.9352C42.093 16.1642 41.2605 16.4058 40.4149 16.6093Z" fill="white"></path><path d="M57.8975 23.7826C53.6699 26.3264 48.8569 23.7826 47.8032 18.4408C47.0357 14.6253 48.4926 9.28345 53.5919 7.24848C54.6768 6.82482 55.8535 6.67608 57.013 6.81604C58.4059 7.06537 59.6838 7.73587 60.6663 8.73304C61.6488 9.7302 62.2865 11.0037 62.4893 12.3741C63.3479 16.9146 61.3967 21.7604 57.8975 23.7826ZM59.3675 15.223C59.3662 14.1664 58.9839 13.144 58.2878 12.3359C57.9157 11.836 57.3778 11.4779 56.7658 11.3224C56.1537 11.1671 55.5055 11.224 54.9316 11.4838C52.6422 12.4503 51.0292 15.9607 51.6146 18.5426C51.6593 18.9478 51.7939 19.3386 52.0092 19.6875C52.2244 20.0365 52.515 20.3353 52.8607 20.5631C53.2063 20.7908 53.5987 20.942 54.0103 21.006C54.4221 21.0699 54.843 21.0453 55.2438 20.9337C56.454 20.5203 57.5018 19.7479 58.241 18.724C58.9803 17.7002 59.3741 16.4762 59.3675 15.223Z" fill="white"></path><path d="M66.7645 24.851C66.7006 25.3165 66.4504 25.7381 66.0686 26.0232C65.6867 26.3081 65.2048 26.4333 64.7287 26.3709C64.2526 26.3085 63.8214 26.0637 63.5299 25.6904C63.2383 25.3172 63.1105 24.8459 63.1743 24.3804C63.2381 23.9149 63.4884 23.4933 63.8702 23.2082C64.252 22.9232 64.7339 22.7981 65.21 22.8605C65.6861 22.9229 66.1173 23.1676 66.4089 23.5409C66.7004 23.9142 66.8284 24.3855 66.7645 24.851ZM65.6327 7.69359C65.8802 7.32416 66.2431 7.04282 66.6675 6.89154C67.0917 6.74027 67.5547 6.72716 67.9873 6.85417C68.427 6.96174 68.8155 7.21375 69.0879 7.56801C69.3602 7.92227 69.4997 8.35725 69.4832 8.80011C69.4258 9.51048 69.3172 10.216 69.158 10.9114C68.7287 13.2644 68.3125 15.6172 67.8572 17.9448C67.6491 18.8733 67.3759 19.7636 67.0767 20.7047C66.9726 20.9989 66.7987 21.2648 66.5694 21.4805C66.4268 21.6429 66.2447 21.7673 66.0399 21.8425C65.835 21.9178 65.6141 21.9412 65.3975 21.9108C65.181 21.8804 64.9757 21.797 64.8008 21.6685C64.6259 21.5399 64.4871 21.3702 64.3971 21.1753C64.2424 20.8256 64.1584 20.4497 64.1499 20.0688C64.1499 18.4917 64.1499 16.9019 64.2539 15.312C64.4308 13.0431 64.7786 10.79 65.2946 8.57117C65.3553 8.2739 65.4698 7.98962 65.6327 7.73175V7.69359Z" fill="white"></path><path fill-rule="evenodd" clip-rule="evenodd" d="M7.27995 35.0714C7.12636 35.4067 7.08424 35.7804 7.15929 36.1401C7.20922 36.6142 7.31889 37.0806 7.4858 37.5285C7.69419 38.077 7.92737 38.6194 8.21489 39.2879C8.28101 39.4417 8.35011 39.6023 8.42241 39.7713C8.81014 40.677 9.29665 41.8344 9.94557 43.5095C10.1292 43.9854 10.2924 44.4651 10.4566 44.9482C10.5229 45.1434 10.5895 45.3392 10.6577 45.5354C10.902 46.2332 11.3224 46.86 11.8796 47.3568C12.1163 47.6299 12.4301 47.8288 12.782 47.9283C13.1408 48.0298 13.5224 48.0234 13.8774 47.9099C14.2324 47.7963 14.5442 47.581 14.7723 47.2918C14.9959 47.0083 15.1289 46.6666 15.1548 46.3096C15.2999 45.6143 15.2503 44.8933 15.0112 44.223C14.6317 43.1099 14.1994 41.9952 13.7008 40.905L13.6985 40.9001C12.8784 39.1944 12.0447 37.5004 11.1716 35.8058L11.165 35.7939C10.9094 35.3524 10.5773 34.9578 10.1835 34.6276C9.92779 34.333 9.57513 34.1342 9.18568 34.0657C8.78792 33.9958 8.3777 34.0663 8.02823 34.2647C7.69765 34.4493 7.43559 34.7317 7.27995 35.0714Z" fill="white"></path><path fill-rule="evenodd" clip-rule="evenodd" d="M19.8061 30.8712C18.5201 30.5456 17.1771 30.4981 15.8706 30.7322C14.8587 30.8297 13.8635 31.0579 13.1724 31.5099C12.8209 31.74 12.5367 32.0354 12.3786 32.4109C12.2197 32.7885 12.1994 33.2203 12.3297 33.7014C12.5675 34.5826 12.8763 35.4394 13.1841 36.2935L13.2339 36.4318L13.2351 36.4349C14.1617 38.916 15.0972 41.3888 16.0411 43.853C16.1512 44.2414 16.3069 44.616 16.505 44.9694L16.5087 44.9759C16.7704 45.4149 17.1061 45.8075 17.5015 46.1373C17.6993 46.3186 17.9439 46.444 18.2091 46.5001C18.4769 46.5566 18.7554 46.5403 19.0143 46.4526C19.2733 46.365 19.5026 46.2095 19.6774 46.0031C19.8493 45.8001 19.9619 45.5555 20.0032 45.2952C20.1738 44.5881 20.1192 43.8468 19.8465 43.1709C19.7614 42.9434 19.6946 42.711 19.6242 42.4663C19.6008 42.3847 19.577 42.3017 19.5519 42.2171C21.7127 41.3913 24.0118 40.2808 24.8202 37.6976C25.1368 36.8049 25.1632 35.8382 24.8957 34.9302C24.628 34.0211 24.0787 33.2154 23.3236 32.6239C22.2959 31.7959 21.0953 31.1976 19.8061 30.8712ZM16.2415 34.0398C16.2841 34.0278 16.327 34.0166 16.3699 34.0063C17.7767 33.79 19.2159 34.0782 20.4227 34.8174C20.9545 35.179 21.1723 35.5808 21.2098 35.9674C21.2484 36.3655 21.1003 36.7968 20.803 37.2115C20.241 37.9947 19.2156 38.6217 18.2893 38.7385C17.614 37.218 16.9283 35.636 16.2415 34.0398Z" fill="white"></path><path d="M28.3804 28.088C29.9118 27.3964 31.8088 27.277 33.2932 27.7632C33.667 27.8697 33.9914 28.1 34.2107 28.4147C34.4287 28.7275 34.5293 29.1044 34.4957 29.4812C34.4935 29.7258 34.4321 29.9664 34.3166 30.1835C34.199 30.4045 34.0287 30.5946 33.8201 30.7377C33.6115 30.8807 33.3707 30.9727 33.1182 31.0055C32.8655 31.0385 32.6086 31.0114 32.369 30.9266L32.3507 30.9202L32.3336 30.9114C32.211 30.8486 32.0807 30.8014 31.946 30.7706L31.9375 30.7688C30.8933 30.4976 29.9083 30.9469 29.5485 31.499C29.3769 31.7623 29.3556 32.028 29.4986 32.2698C29.6516 32.5286 30.027 32.8191 30.7866 33.0262C30.9955 33.0823 31.2096 33.1364 31.4268 33.1914C32.0275 33.3434 32.6517 33.5014 33.2553 33.7203L33.2576 33.7212C36.0423 34.7571 37.0792 36.9026 36.7242 38.9206C36.373 40.9162 34.6685 42.7323 32.1052 43.1607C31.1724 43.3629 30.2018 43.3235 29.2892 43.0465C28.3744 42.7687 27.5498 42.2617 26.8973 41.5758L26.8803 41.5579C26.6743 41.2994 26.5358 40.9958 26.4743 40.6737C26.4178 40.383 26.4476 40.0825 26.56 39.8077C26.6717 39.5346 26.8606 39.2982 27.1044 39.1259C27.362 38.9306 27.6725 38.8135 27.9975 38.789C28.3214 38.7647 28.6455 38.8335 28.9299 38.9869C29.2139 39.1211 29.4782 39.2923 29.7153 39.4958L29.7198 39.4995C30.1394 39.8747 30.647 39.9725 31.1337 39.8819C31.6276 39.7901 32.092 39.5043 32.3907 39.1253C32.6874 38.7486 32.8065 38.3011 32.6651 37.8667C32.5229 37.4291 32.0951 36.9389 31.1553 36.529C30.9096 36.427 30.6549 36.3447 30.3899 36.2647C30.3185 36.2431 30.2458 36.2216 30.1723 36.1998C29.9764 36.1416 29.7748 36.0817 29.5771 36.0157C29.441 35.9703 29.3059 35.9274 29.1722 35.8847C28.8066 35.7683 28.4502 35.6549 28.1072 35.5027C27.3607 35.2542 26.7158 34.777 26.2684 34.1418C25.8191 33.504 25.5931 32.7414 25.6239 31.9677C25.6263 30.0823 26.8408 28.7833 28.3804 28.088Z" fill="white"></path><path d="M47.7963 27.8871C47.4994 27.7453 47.171 27.678 46.8409 27.6912C46.5107 27.7045 46.1891 27.7979 45.9051 27.9632C45.6229 28.1272 45.3866 28.357 45.2173 28.632C45.062 28.8636 44.9546 29.1226 44.901 29.3945C44.8475 29.6663 44.8488 29.9456 44.9047 30.2167C44.96 30.5651 45.0214 30.9039 45.0819 31.2381C45.1822 31.7911 45.2797 32.3316 45.344 32.8827L45.3464 32.8967C45.493 33.761 45.5696 34.6352 45.5765 35.5112L45.5772 35.5236C45.6272 36.4696 45.2976 37.3972 44.6588 38.1096L44.6487 38.1223C44.4409 38.3827 44.163 38.5814 43.8461 38.6963C43.5293 38.8112 43.1861 38.8376 42.8548 38.7725C42.5235 38.7075 42.2173 38.5537 41.9703 38.3282C41.7233 38.1027 41.5452 37.8136 41.4563 37.495C41.2664 36.8233 41.1566 36.1324 41.1287 35.4362L41.4529 30.3893C41.4577 30.3235 41.4631 30.2558 41.4687 30.1875C41.481 30.0343 41.4937 29.8781 41.4989 29.7325C41.5066 29.5183 41.5 29.2979 41.449 29.0893C41.3967 28.8761 41.2973 28.6733 41.121 28.5007C40.9465 28.3297 40.7108 28.2036 40.4143 28.1177C39.8782 27.966 39.4248 27.9708 39.047 28.1276C38.669 28.2843 38.41 28.5754 38.2267 28.9116C38.0449 29.245 37.928 29.6397 37.8397 30.035C37.7741 30.3284 37.7214 30.6363 37.6714 30.9295C37.654 31.0305 37.6371 31.1296 37.62 31.226L37.6195 31.2288C37.3516 32.8364 37.2719 34.4686 37.3818 36.0938C37.4023 36.9721 37.5896 37.8391 37.9344 38.6504C38.3233 39.6972 39.0277 40.6042 39.9546 41.2516C40.8835 41.9004 41.992 42.2579 43.1333 42.2768C44.2746 42.2956 45.3949 41.975 46.3457 41.3575C47.295 40.7408 48.0307 39.8569 48.4555 38.8228C49.0498 37.5056 49.3288 36.073 49.2712 34.6343C49.2363 33.584 49.1778 32.5256 49.1197 31.4725C49.0911 30.956 49.0626 30.4405 49.0371 29.9282C49.0242 29.4145 48.851 28.9169 48.5405 28.5023C48.3484 28.2401 48.0927 28.0287 47.7963 27.8871Z" fill="white"></path><path d="M58.3056 35.8007C58.2755 35.8381 58.2438 35.8768 58.2106 35.9171C57.9691 34.5548 57.7452 33.1929 57.521 31.8289C57.4406 31.3395 57.3598 30.8481 57.2785 30.358L57.2694 30.3034L57.2397 30.2561C57.1837 30.1672 57.1782 30.0801 57.1782 29.8942V29.8727L57.1748 29.8514C57.1141 29.4675 56.9365 29.1103 56.6652 28.8264C56.3947 28.5433 56.0433 28.3463 55.6568 28.2608C55.2709 28.1677 54.8654 28.1882 54.4914 28.3198C54.1183 28.451 53.7931 28.6869 53.5563 28.9978C53.3595 29.2364 53.1982 29.501 53.0773 29.7838C52.803 30.3929 52.5262 31.0036 52.2487 31.616L52.2439 31.6265C51.551 33.1552 50.8535 34.6942 50.1763 36.2452L50.1742 36.2503C49.7584 37.256 49.4152 38.3157 49.0732 39.3721C49.005 39.583 48.9367 39.7937 48.8678 40.004C48.7443 40.3373 48.6903 40.6915 48.7089 41.0455C48.6864 41.3624 48.764 41.6785 48.9313 41.9511C49.1019 42.2293 49.3575 42.4481 49.662 42.577C49.9847 42.7153 50.3455 42.7447 50.6872 42.6604C51.0283 42.5763 51.3311 42.3839 51.5481 42.1133C51.8252 41.7801 52.0635 41.4166 52.2579 41.0315C52.8316 39.8841 53.3799 38.7227 53.9257 37.5663C54.1369 37.119 54.3421 36.7185 54.5756 36.2822C54.5916 36.336 54.608 36.3885 54.6249 36.4411C54.8696 37.4943 55.2826 38.5032 55.8487 39.4307C55.9558 39.6272 56.105 39.7989 56.2861 39.934C56.4694 40.0708 56.6809 40.1668 56.906 40.2156C57.131 40.2644 57.3643 40.2646 57.5894 40.2162C57.8143 40.168 58.0264 40.0719 58.2098 39.9358L58.5728 39.6701L61.3898 37.3501L61.2232 38.3881C60.9946 39.8149 60.7677 41.2298 60.5266 42.6451C60.3688 43.2723 60.3691 43.9275 60.5272 44.5546C60.5958 44.9075 60.7703 45.2324 61.0286 45.4879C61.2891 45.7454 61.6227 45.9204 61.9862 45.9902C62.3497 46.0599 62.7263 46.0213 63.067 45.8792C63.4028 45.7392 63.6884 45.5051 63.888 45.2067C64.3525 44.6433 64.6416 43.9611 64.721 43.2415C64.8406 42.2252 64.9756 41.195 65.1108 40.1652C65.2665 38.9782 65.4221 37.7915 65.5536 36.6276L65.554 36.624C65.6806 35.3499 65.7418 34.0706 65.7375 32.7905C65.7652 32.386 65.6623 31.9831 65.4428 31.6387C65.2225 31.2931 64.8963 31.0244 64.5108 30.8707C64.1098 30.6924 63.6609 30.6447 63.2301 30.7348C62.8021 30.8243 62.4147 31.0449 62.1241 31.3644C61.6045 31.8343 61.1171 32.3371 60.6649 32.8695L60.6619 32.8731C60.1682 33.4745 59.678 34.0877 59.1909 34.697C58.8947 35.0674 58.5994 35.4369 58.3056 35.8007Z" fill="white"></path></g><defs><clipPath id="clip0_31_339"><rect width="76.3636" height="48" fill="white" transform="translate(0.273438)"></rect></clipPath></defs></svg>