<svg xmlns="http://www.w3.org/2000/svg" width="127" height="48" viewBox="0 0 127 48" fill="none"><path d="M58.1641 42.2857H61.4453V29.9086H58.1641V42.2857ZM58.1641 27.9784H61.4453V25.0349H58.1641V27.9784Z" fill="white"></path><path d="M63.5586 46.3391H66.8399V40.8864H66.8882C67.5878 41.9479 68.7218 42.6477 70.459 42.6477C73.6438 42.6477 75.8152 40.1143 75.8152 36.1092C75.8152 32.2488 73.7161 29.5708 70.4348 29.5708C68.746 29.5708 67.5878 30.367 66.7916 31.4526H66.7193V29.9086H63.5586V46.3391ZM69.7594 39.9213C67.805 39.9213 66.7675 38.4496 66.7675 36.2057C66.7675 33.9861 67.5878 32.2247 69.6386 32.2247C71.6653 32.2247 72.4856 33.8653 72.4856 36.2057C72.4856 38.5461 71.4241 39.9213 69.7594 39.9213Z" fill="white"></path><path d="M82.3609 42.6476C85.4491 42.6476 87.5723 41.1517 87.5723 38.6666C87.5723 35.7714 85.2803 35.1924 83.2054 34.7581C81.444 34.3962 79.8034 34.2996 79.8034 33.2381C79.8034 32.3454 80.6478 31.8628 81.9266 31.8628C83.3259 31.8628 84.1704 32.3454 84.3151 33.6724H87.2828C87.0415 31.1873 85.232 29.5708 81.9749 29.5708C79.152 29.5708 76.9322 30.8495 76.9322 33.5275C76.9322 36.2298 79.1037 36.8331 81.3234 37.2673C83.0123 37.605 84.5806 37.7257 84.5806 38.908C84.5806 39.7765 83.7602 40.3314 82.3126 40.3314C80.8409 40.3314 79.8275 39.7042 79.6104 38.2806H76.5703C76.7634 40.9105 78.7659 42.6476 82.3609 42.6476Z" fill="white"></path><path d="M100.031 42.2857V29.9086H96.7501V37.0501C96.7501 38.6908 95.8092 39.8489 94.265 39.8489C92.8657 39.8489 92.2142 39.0527 92.2142 37.605V29.9086H88.957V38.16C88.957 40.8622 90.5012 42.6235 93.2517 42.6235C94.9888 42.6235 95.9539 41.972 96.7984 40.838H96.8708V42.2857H100.031Z" fill="white"></path><path d="M102.152 42.2857H105.434V35.0958C105.434 33.4552 106.326 32.3937 107.653 32.3937C108.86 32.3937 109.559 33.1174 109.559 34.5168V42.2857H112.841V35.0958C112.841 33.4552 113.685 32.3937 115.06 32.3937C116.267 32.3937 116.966 33.1174 116.966 34.5168V42.2857H120.248V33.9619C120.248 31.2597 118.776 29.5708 116.17 29.5708C114.602 29.5708 113.299 30.3911 112.455 31.7422H112.406C111.803 30.4393 110.549 29.5708 108.98 29.5708C107.267 29.5708 106.061 30.4393 105.385 31.5733H105.313V29.9086H102.152V42.2857Z" fill="white"></path><path d="M58.2109 21.0864H61.4922V3.83554H58.2109V21.0864Z" fill="white"></path><path d="M69.5169 21.4483C73.3531 21.4483 75.9829 18.6013 75.9829 14.9099C75.9829 11.2184 73.3531 8.37146 69.5169 8.37146C65.6807 8.37146 63.0508 11.2184 63.0508 14.9099C63.0508 18.6013 65.6807 21.4483 69.5169 21.4483ZM69.5169 18.9391C67.4902 18.9391 66.3804 17.3226 66.3804 14.9099C66.3804 12.4972 67.4902 10.8566 69.5169 10.8566C71.5194 10.8566 72.6534 12.4972 72.6534 14.9099C72.6534 17.3226 71.5194 18.9391 69.5169 18.9391Z" fill="white"></path><path d="M82.9602 25.3087C84.7939 25.3087 86.3863 24.8744 87.4237 23.9093C88.3405 23.0648 88.8955 21.8826 88.8955 20.1455V8.70924H85.7349V10.0121H85.6866C84.9387 8.97463 83.8047 8.37146 82.2605 8.37146C79.1241 8.37146 76.9043 10.7359 76.9043 14.4274C76.9043 18.167 79.6066 20.3384 82.3571 20.3384C83.9254 20.3384 84.8663 19.7112 85.5901 18.8909H85.6625V20.242C85.6625 21.9308 84.7698 22.8235 82.912 22.8235C81.3919 22.8235 80.6923 22.2204 80.4269 21.4483H77.1697C77.5075 23.861 79.5825 25.3087 82.9602 25.3087ZM82.912 17.7086C81.2231 17.7086 80.1132 16.4782 80.1132 14.3791C80.1132 12.3042 81.2231 11.0013 82.8879 11.0013C84.8663 11.0013 85.8313 12.5454 85.8313 14.355C85.8313 16.1886 84.9869 17.7086 82.912 17.7086Z" fill="white"></path><path d="M96.8723 21.4483C100.708 21.4483 103.338 18.6013 103.338 14.9099C103.338 11.2184 100.708 8.37146 96.8723 8.37146C93.0362 8.37146 90.4062 11.2184 90.4062 14.9099C90.4062 18.6013 93.0362 21.4483 96.8723 21.4483ZM96.8723 18.9391C94.8457 18.9391 93.7358 17.3226 93.7358 14.9099C93.7358 12.4972 94.8457 10.8566 96.8723 10.8566C98.8749 10.8566 100.009 12.4972 100.009 14.9099C100.009 17.3226 98.8749 18.9391 96.8723 18.9391Z" fill="white"></path><path d="M106.215 16.3575H120.401V13.5347H106.215V16.3575Z" fill="white"></path><path d="M121.441 27.806C121.441 27.2508 121.891 26.8007 122.447 26.8007H124.457C125.013 26.8007 125.463 27.2508 125.463 27.806C125.463 28.3612 125.013 28.8113 124.457 28.8113H122.447C121.891 28.8113 121.441 28.3612 121.441 27.806Z" fill="white"></path><path fill-rule="evenodd" clip-rule="evenodd" d="M25.0254 0C38.2802 0 49.0254 10.7452 49.0254 24C49.0254 37.2548 38.2802 48 25.0254 48C11.7706 48 1.02539 37.2548 1.02539 24C1.02539 10.7452 11.7706 0 25.0254 0ZM24.1579 1.79591C21.42 2.18123 18.8129 4.3813 16.7891 8.06088C16.202 9.1282 15.6723 10.3074 15.2107 11.5805C17.9625 10.889 20.9855 10.4813 24.1579 10.4182V1.79591ZM13.1823 12.157C13.7563 10.3555 14.4585 8.69808 15.2689 7.22478C16.2721 5.40071 17.4627 3.82554 18.8042 2.61572C11.5095 4.73428 5.75966 10.4841 3.64112 17.7788C4.85092 16.4374 6.4261 15.2467 8.25018 14.2435C9.72348 13.4332 11.3809 12.7309 13.1823 12.157ZM12.6059 14.1853C11.9144 16.9372 11.5067 19.9601 11.4436 23.1325H2.82129C3.20662 20.3945 5.40669 17.7874 9.08628 15.7637C10.1536 15.1766 11.3327 14.647 12.6059 14.1853ZM13.179 23.1325C13.2506 19.6704 13.749 16.4201 14.5736 13.5482C17.4455 12.7236 20.6959 12.2251 24.1579 12.1535V15.901C22.8663 19.2074 20.2321 21.8414 16.9255 23.1325H13.179ZM11.4436 24.8675H2.82129C3.20662 27.6055 5.40669 30.2125 9.08628 32.2363C10.1536 32.8234 11.3327 33.353 12.6059 33.8147C11.9144 31.0628 11.5067 28.0399 11.4436 24.8675ZM14.5736 34.4518C13.749 31.5799 13.2506 28.3296 13.179 24.8675H16.9255C20.2321 26.1586 22.8665 28.7926 24.1579 32.099V35.8465C20.6959 35.7749 17.4455 35.2764 14.5736 34.4518ZM13.1823 35.843C11.3809 35.2691 9.72348 34.5668 8.25018 33.7565C6.4261 32.7533 4.85092 31.5626 3.64112 30.2212C5.75966 37.5158 11.5095 43.2658 18.8042 45.3842C17.4627 44.1744 16.2721 42.5993 15.2689 40.7752C14.4585 39.3019 13.7563 37.6445 13.1823 35.843ZM24.1579 46.2041C21.42 45.8188 18.8129 43.6187 16.7891 39.9391C16.202 38.8718 15.6723 37.6926 15.2107 36.4195C17.9625 37.111 20.9855 37.5187 24.1579 37.5817V46.2041ZM31.2465 45.3842C32.588 44.1744 33.7787 42.5993 34.782 40.7752C35.5922 39.3019 36.2945 37.6445 36.8684 35.843C38.6699 35.2691 40.3273 34.5668 41.8007 33.7565C43.6247 32.7533 45.1999 31.5626 46.4096 30.2212C44.2911 37.5158 38.5412 43.2658 31.2465 45.3842ZM34.8401 36.4195C34.3784 37.6926 33.8487 38.8718 33.2617 39.9391C31.238 43.6187 28.6309 45.8188 25.8929 46.2041V37.5817C29.0653 37.5187 32.0882 37.111 34.8401 36.4195ZM37.4449 33.8147C38.718 33.353 39.8972 32.8234 40.9645 32.2363C44.6441 30.2125 46.8441 27.6055 47.2295 24.8675H38.6071C38.5441 28.0399 38.1363 31.0628 37.4449 33.8147ZM36.8719 24.8675C36.8003 28.3296 36.3018 31.5799 35.4771 34.4518C32.6053 35.2764 29.355 35.7749 25.8929 35.8465V32.1018C27.1839 28.7941 29.8188 26.1589 33.1263 24.8675H36.8719ZM38.6071 23.1325H47.2295C46.8441 20.3945 44.6441 17.7874 40.9645 15.7637C39.8972 15.1766 38.718 14.647 37.4449 14.1853C38.1363 16.9372 38.5441 19.9601 38.6071 23.1325ZM35.4771 13.5482C36.3018 16.4201 36.8003 19.6704 36.8719 23.1325H33.1263C29.8188 21.8411 27.1839 19.2059 25.8929 15.8982V12.1535C29.355 12.2251 32.6053 12.7236 35.4771 13.5482ZM36.8684 12.157C38.6699 12.7309 40.3273 13.4332 41.8007 14.2435C43.6247 15.2467 45.1999 16.4374 46.4096 17.7788C44.2911 10.4841 38.5412 4.73428 31.2465 2.61572C32.588 3.82554 33.7787 5.40071 34.782 7.22478C35.5922 8.69808 36.2945 10.3555 36.8684 12.157ZM25.8929 1.79591C28.6309 2.18123 31.238 4.3813 33.2617 8.06088C33.8487 9.12821 34.3784 10.3074 34.8401 11.5805C32.0882 10.889 29.0653 10.4813 25.8929 10.4182V1.79591Z" fill="white"></path></svg>